<svg width="15" height="14" viewBox="0 0 15 14" fill="none" xmlns="http://www.w3.org/2000/svg">
<g clip-path="url(#clip0)">
<path d="M12.2676 1.75H11.6843V0.583298C11.6843 0.261368 11.4229 0 11.1009 0H10.5176C10.1955 0 9.93428 0.261368 9.93428 0.583298V1.75H4.10088V0.583298C4.10088 0.261368 3.83961 0 3.51758 0H2.93428C2.61224 0 2.35088 0.261368 2.35088 0.583298V1.75H1.76758C0.80275 1.75 0.0175781 2.53517 0.0175781 3.5V12.25C0.0175781 13.2148 0.80275 14 1.76758 14H12.2676C13.2324 14 14.0176 13.2148 14.0176 12.25V3.5C14.0176 2.53517 13.2324 1.75 12.2676 1.75ZM12.8509 12.25C12.8509 12.5714 12.589 12.8333 12.2676 12.8333H1.76758C1.44618 12.8333 1.18428 12.5714 1.18428 12.25V5.85669H12.8509V12.25Z" fill="#03CF9E"/>
</g>
<defs>
<clipPath id="clip0">
<rect width="14" height="14" fill="white" transform="translate(0.0175781)"/>
</clipPath>
</defs>
</svg>
