<svg width="15" height="14" viewBox="0 0 15 14" fill="none" xmlns="http://www.w3.org/2000/svg">
<path d="M13.9906 7.64636C13.8649 6.38202 13.3 5.19006 12.4 4.29002C11.6309 3.52091 10.6895 3.02667 9.69892 2.8069V2.11214C10.1035 2.01149 10.4042 1.64527 10.4042 1.20998C10.4042 0.697327 9.98718 0.280273 9.47453 0.280273H7.50575C6.99311 0.280273 6.57605 0.697327 6.57605 1.20998C6.57605 1.64524 6.87678 2.01146 7.28134 2.11214V2.80884C6.29381 3.02954 5.35552 3.5231 4.58857 4.29005C4.42073 4.45789 4.26596 4.63396 4.12429 4.81695C4.11743 4.81643 4.11056 4.81591 4.10356 4.81591H2.15499C2.004 4.81591 1.88155 4.93833 1.88155 5.08935C1.88155 5.24037 2.004 5.36279 2.15499 5.36279H3.75222C3.55173 5.69844 3.39007 6.05093 3.26702 6.41379H0.29102C0.140025 6.41379 0.0175781 6.53621 0.0175781 6.68723C0.0175781 6.83825 0.140025 6.96067 0.29102 6.96067H3.1125C3.0337 7.30661 2.98847 7.65866 2.97679 8.0117H1.76761C1.61661 8.0117 1.49416 8.13412 1.49416 8.28514C1.49416 8.43617 1.61661 8.55859 1.76761 8.55859H2.98552C3.00859 8.91253 3.0655 9.26461 3.15625 9.60961H1.38479C1.23379 9.60961 1.11135 9.73203 1.11135 9.88306C1.11135 10.0341 1.23379 10.1565 1.38479 10.1565H3.33076C3.59901 10.8661 4.01822 11.5312 4.58857 12.1015C5.48945 13.0024 6.68264 13.5674 7.94829 13.6925C8.12893 13.7103 8.3097 13.7191 8.49023 13.7191C9.55725 13.7191 10.6107 13.4103 11.5046 12.8282C11.6311 12.7458 11.6669 12.5764 11.5845 12.4499C11.5021 12.3233 11.3327 12.2875 11.2062 12.3699C9.24949 13.6441 6.62902 13.3686 4.97527 11.7148C3.03487 9.77444 3.03487 6.6172 4.97527 4.67678C6.91564 2.73641 10.0729 2.73641 12.0133 4.67678C13.6649 6.32837 13.9419 8.9466 12.6719 10.9023C12.5897 11.029 12.6257 11.1983 12.7523 11.2806C12.879 11.3628 13.0483 11.3268 13.1306 11.2001C13.8091 10.1552 14.1145 8.89311 13.9906 7.64636ZM7.12294 1.21C7.12294 0.998906 7.29466 0.827184 7.50575 0.827184H9.47453C9.68563 0.827184 9.85735 0.998906 9.85735 1.21C9.85735 1.4211 9.68563 1.59282 9.47453 1.59282H9.42548H7.55478H7.50575C7.29466 1.59282 7.12294 1.42107 7.12294 1.21ZM7.82822 2.71483V2.1397H9.15204V2.71385C8.71245 2.66157 8.26773 2.6619 7.82822 2.71483Z" fill="#03CF9E"/>
<path d="M12.207 11.6348C12.1348 11.6348 12.0646 11.664 12.0137 11.7149C11.9626 11.7657 11.9336 11.8363 11.9336 11.9082C11.9336 11.9801 11.9626 12.0507 12.0137 12.1015C12.0646 12.1527 12.1349 12.1816 12.207 12.1816C12.2789 12.1816 12.3492 12.1527 12.4004 12.1015C12.4512 12.0507 12.4805 11.9801 12.4805 11.9082C12.4805 11.8363 12.4512 11.7657 12.4004 11.7149C12.3492 11.664 12.2789 11.6348 12.207 11.6348Z" fill="#03CF9E"/>
<path d="M8.49383 3.9541C6.15486 3.9541 4.25195 5.85698 4.25195 8.19598C4.25195 10.535 6.15486 12.4379 8.49383 12.4379C10.8328 12.4379 12.7357 10.535 12.7357 8.19598C12.7357 5.85698 10.8328 3.9541 8.49383 3.9541ZM8.49383 11.891C6.45639 11.891 4.79884 10.2334 4.79884 8.19598C4.79884 6.15856 6.45639 4.50099 8.49383 4.50099C10.5313 4.50099 12.1888 6.15856 12.1888 8.19598C12.1888 10.2334 10.5313 11.891 8.49383 11.891Z" fill="#03CF9E"/>
<path d="M10.2238 6.07911L8.8695 7.43344C8.75624 7.37744 8.62884 7.3458 8.49417 7.3458C8.35947 7.3458 8.23211 7.37744 8.11885 7.43344L7.51271 6.8273C7.4059 6.72052 7.23282 6.72052 7.12598 6.8273C7.0192 6.93408 7.0192 7.10722 7.12598 7.214L7.73212 7.82014C7.67609 7.9334 7.64448 8.0608 7.64448 8.19547C7.64448 8.66398 8.02563 9.04516 8.49417 9.04516C8.96271 9.04516 9.34386 8.66398 9.34386 8.19547C9.34386 8.0608 9.31222 7.9334 9.25622 7.82014L10.5708 6.50554L10.6105 6.46581C10.7173 6.35903 10.7173 6.18589 10.6105 6.07911C10.5038 5.97233 10.3307 5.97233 10.2238 6.07911ZM8.49417 8.49831C8.32721 8.49831 8.19136 8.36246 8.19136 8.1955C8.19136 8.02853 8.32721 7.89269 8.49417 7.89269C8.66113 7.89269 8.79698 8.02853 8.79698 8.1955C8.79698 8.36246 8.66113 8.49831 8.49417 8.49831Z" fill="#03CF9E"/>
<path d="M11.4184 7.92578H11.165C11.014 7.92578 10.8916 8.0482 10.8916 8.19922C10.8916 8.35024 11.014 8.47266 11.165 8.47266H11.4184C11.5694 8.47266 11.6918 8.35024 11.6918 8.19922C11.6918 8.0482 11.5694 7.92578 11.4184 7.92578Z" fill="#03CF9E"/>
<path d="M5.82362 7.91895H5.57031C5.41932 7.91895 5.29688 8.04136 5.29688 8.19238C5.29688 8.3434 5.41932 8.46582 5.57031 8.46582H5.82362C5.97462 8.46582 6.09706 8.3434 6.09706 8.19238C6.09706 8.04136 5.97462 7.91895 5.82362 7.91895Z" fill="#03CF9E"/>
<path d="M8.49707 5.79921C8.64806 5.79921 8.77051 5.67679 8.77051 5.52577V5.27246C8.77051 5.12144 8.64806 4.99902 8.49707 4.99902C8.34608 4.99902 8.22363 5.12144 8.22363 5.27246V5.52577C8.22363 5.67679 8.34608 5.79921 8.49707 5.79921Z" fill="#03CF9E"/>
<path d="M8.49121 10.5928C8.34022 10.5928 8.21777 10.7152 8.21777 10.8662V11.1195C8.21777 11.2705 8.34022 11.393 8.49121 11.393C8.6422 11.393 8.76465 11.2705 8.76465 11.1195V10.8662C8.76465 10.7152 8.6422 10.5928 8.49121 10.5928Z" fill="#03CF9E"/>
<path d="M0.291016 9.60938C0.219102 9.60938 0.148555 9.63863 0.0976953 9.68949C0.0468359 9.74035 0.0175781 9.8109 0.0175781 9.88281C0.0175781 9.955 0.0468086 10.0253 0.0976953 10.0761C0.148582 10.127 0.219102 10.1562 0.291016 10.1562C0.36293 10.1562 0.433477 10.127 0.484309 10.0761C0.535168 10.0253 0.564453 9.95473 0.564453 9.88281C0.564453 9.8109 0.535195 9.74035 0.484309 9.68949C0.433477 9.63863 0.36293 9.60938 0.291016 9.60938Z" fill="#03CF9E"/>
</svg>