<svg width="28" height="30" viewBox="0 0 28 30" fill="none" xmlns="http://www.w3.org/2000/svg">
<path d="M6 15C6 14.8011 6.07902 14.6103 6.21967 14.4697C6.36032 14.329 6.55109 14.25 6.75 14.25H11.25C11.4489 14.25 11.6397 14.329 11.7803 14.4697C11.921 14.6103 12 14.8011 12 15C12 15.1989 11.921 15.3897 11.7803 15.5303C11.6397 15.671 11.4489 15.75 11.25 15.75H6.75C6.55109 15.75 6.36032 15.671 6.21967 15.5303C6.07902 15.3897 6 15.1989 6 15ZM15.75 17.25H6.75C6.55109 17.25 6.36032 17.329 6.21967 17.4697C6.07902 17.6103 6 17.8011 6 18C6 18.1989 6.07902 18.3897 6.21967 18.5303C6.36032 18.671 6.55109 18.75 6.75 18.75H15.75C15.9489 18.75 16.1397 18.671 16.2803 18.5303C16.421 18.3897 16.5 18.1989 16.5 18C16.5 17.8011 16.421 17.6103 16.2803 17.4697C16.1397 17.329 15.9489 17.25 15.75 17.25ZM15.7277 20.25H6.75C6.55109 20.25 6.36032 20.329 6.21967 20.4697C6.07902 20.6103 6 20.8011 6 21C6 21.1989 6.07902 21.3897 6.21967 21.5303C6.36032 21.671 6.55109 21.75 6.75 21.75H15.7277C15.9266 21.75 16.1174 21.671 16.2581 21.5303C16.3987 21.3897 16.4777 21.1989 16.4777 21C16.4777 20.8011 16.3987 20.6103 16.2581 20.4697C16.1174 20.329 15.9266 20.25 15.7277 20.25ZM26.4293 26.8125C26.4178 26.8257 26.4095 26.8413 26.4048 26.8581C26.4001 26.8749 26.3993 26.8926 26.4023 26.9098L26.6051 28.1402C26.6565 28.4369 26.6228 28.742 26.508 29.0203C26.3932 29.2986 26.202 29.5387 25.9564 29.7129C25.7222 29.8814 25.4449 29.9798 25.1568 29.9969C24.8687 30.0139 24.5818 29.9487 24.3293 29.809L23.267 29.2283L22.1707 29.809C21.9889 29.9094 21.7886 29.9716 21.5819 29.9917C21.3753 30.0119 21.1667 29.9896 20.9689 29.9262C20.7323 29.974 20.4915 29.9987 20.25 30H3.75C2.75544 30 1.80161 29.6049 1.09835 28.9016C0.395088 28.1984 0 27.2446 0 26.25V3.75C0 2.75544 0.395088 1.80161 1.09835 1.09835C1.80161 0.395088 2.75544 0 3.75 0L15.0082 0L24 9V21.198C24.2863 21.3583 24.5152 21.6042 24.6545 21.9012L25.1836 23.0168C25.1876 23.0266 25.1937 23.0353 25.2015 23.0424C25.2093 23.0496 25.2186 23.0548 25.2287 23.0578L26.4158 23.2371C26.702 23.2812 26.9703 23.4039 27.1907 23.5916C27.4112 23.7793 27.5752 24.0245 27.6644 24.3C27.7594 24.5817 27.7744 24.8841 27.7077 25.1738C27.641 25.4635 27.4952 25.7289 27.2865 25.9406L26.4293 26.8125ZM15.75 2.87578V6C15.7506 6.59655 15.9879 7.16848 16.4097 7.5903C16.8315 8.01213 17.4035 8.24938 18 8.25H21.1107L15.75 2.87578ZM3.75 28.5H19.8785C19.8709 28.3802 19.8764 28.26 19.8949 28.1414L20.0977 26.9109C20.1007 26.8937 20.0998 26.8761 20.0952 26.8593C20.0905 26.8424 20.0822 26.8269 20.0707 26.8137L19.2111 25.9424C19.0025 25.7307 18.8567 25.4652 18.79 25.1756C18.7232 24.8859 18.7382 24.5834 18.8332 24.3018C18.9224 24.0262 19.0865 23.7809 19.3071 23.5932C19.5277 23.4055 19.7961 23.2828 20.0824 23.2389L21.2695 23.0596C21.2797 23.0565 21.2891 23.0512 21.2969 23.044C21.3047 23.0367 21.3108 23.0279 21.3146 23.018L21.8437 21.8982C21.983 21.6012 22.2119 21.3553 22.4982 21.1951V9.75H18C17.0054 9.75 16.0516 9.35491 15.3483 8.65165C14.6451 7.94839 14.25 6.99456 14.25 6V1.5H3.75C3.15345 1.50062 2.58152 1.73787 2.15969 2.1597C1.73787 2.58152 1.50062 3.15345 1.5 3.75V26.25C1.50062 26.8465 1.73787 27.4185 2.15969 27.8403C2.58152 28.2621 3.15345 28.4994 3.75 28.5ZM26.243 24.774C26.2271 24.726 26.2025 24.7225 26.1937 24.7207L25.0078 24.5414C24.7549 24.5023 24.5155 24.4017 24.3106 24.2485C24.1056 24.0952 23.9414 23.894 23.8324 23.6625L23.3004 22.5428C23.2822 22.5047 23.2664 22.5018 23.2518 22.5018C23.2371 22.5018 23.2207 22.5053 23.2025 22.5434L22.6699 23.6602C22.5608 23.8917 22.3965 24.0929 22.1915 24.2462C21.9864 24.3994 21.7469 24.5 21.4939 24.5391L20.3068 24.7184C20.2975 24.7184 20.2729 24.7236 20.257 24.7717C20.2489 24.7913 20.2466 24.8128 20.2506 24.8336C20.2546 24.8544 20.2645 24.8737 20.2793 24.8889L21.1406 25.7607C21.3185 25.9423 21.451 26.1633 21.5274 26.4057C21.6037 26.6481 21.6218 26.9051 21.5801 27.1559L21.3773 28.3863C21.3722 28.4056 21.373 28.4259 21.3796 28.4447C21.3862 28.4635 21.3983 28.4799 21.4143 28.4918C21.4342 28.5059 21.4389 28.5029 21.4535 28.4918L22.5152 27.9111C22.7411 27.7873 22.9945 27.7223 23.252 27.7223C23.5096 27.7223 23.763 27.7873 23.9889 27.9111L25.0518 28.4924C25.0658 28.5006 25.0705 28.5035 25.091 28.4889C25.1069 28.4771 25.1189 28.4607 25.1254 28.442C25.1319 28.4233 25.1325 28.4031 25.1273 28.384L24.9246 27.1535C24.883 26.9029 24.9011 26.6461 24.9773 26.4038C25.0536 26.1615 25.1859 25.9406 25.3635 25.759L26.2225 24.8883C26.2363 24.8731 26.2455 24.8543 26.249 24.834C26.2525 24.8138 26.2502 24.793 26.2424 24.774H26.243Z" fill="#03CF9E"/>
</svg>
