<svg width="14" height="15" viewBox="0 0 14 15" fill="none" xmlns="http://www.w3.org/2000/svg">
  <g clip-path="url(#clip0)">
  <path d="M10.4607 7.01858C10.3898 6.86196 10.2341 6.76221 10.0626 6.76221H8.31255V1.07471C8.31255 0.833207 8.11655 0.637207 7.87505 0.637207H6.12505C5.88355 0.637207 5.68755 0.833207 5.68755 1.07471V6.76221H3.93755C3.76605 6.76221 3.6103 6.86283 3.53943 7.01858C3.46768 7.17521 3.49568 7.35808 3.60855 7.48758L6.67105 10.9876C6.75418 11.083 6.87405 11.1372 7.00005 11.1372C7.12605 11.1372 7.24593 11.0821 7.32905 10.9876L10.3916 7.48758C10.5053 7.35896 10.5316 7.17521 10.4607 7.01858Z" fill="white"/>
  <path d="M11.8125 10.2622V12.8872H2.1875V10.2622H0.4375V13.7622C0.4375 14.2461 0.8295 14.6372 1.3125 14.6372H12.6875C13.1714 14.6372 13.5625 14.2461 13.5625 13.7622V10.2622H11.8125Z" fill="white"/>
  </g>
  <defs>
  <clipPath id="clip0">
  <rect width="14" height="14" fill="white" transform="translate(0 0.637207)"/>
  </clipPath>
  </defs>
</svg>