<?xml version="1.0" standalone="no"?>
<!DOCTYPE svg PUBLIC "-//W3C//DTD SVG 20010904//EN"
 "http://www.w3.org/TR/2001/REC-SVG-20010904/DTD/svg10.dtd">
<svg version="1.0" xmlns="http://www.w3.org/2000/svg"
 width="1280.000000pt" height="1148.000000pt" viewBox="0 0 1280.000000 1148.000000"
 preserveAspectRatio="xMidYMid meet">
<metadata>
Created by potrace 1.15, written by Peter Selinger 2001-2017
</metadata>
<g transform="translate(0.000000,1148.000000) scale(0.100000,-0.100000)"
fill="#ffe602" stroke="none">
<path d="M7760 11469 c-451 -51 -871 -258 -1174 -580 -442 -470 -587 -1114
-390 -1734 38 -117 154 -346 231 -455 64 -90 281 -319 350 -371 l32 -24 -397
0 c-402 -1 -565 -9 -887 -46 -688 -79 -1304 -235 -1657 -421 l-96 -51 -54 48
c-256 232 -802 436 -1168 437 -176 1 -268 -34 -323 -121 -35 -57 -31 -159 8
-231 37 -67 129 -162 255 -261 155 -123 256 -242 330 -389 30 -59 70 -163 70
-180 0 -4 -55 -26 -122 -49 -68 -23 -191 -76 -274 -117 -288 -142 -542 -332
-813 -609 -234 -239 -451 -388 -1066 -735 -373 -211 -531 -330 -590 -443 l-27
-52 20 -457 c20 -485 20 -485 71 -525 50 -40 190 -38 531 8 177 23 365 33 404
22 53 -16 -162 -60 -425 -88 -432 -46 -524 -66 -567 -120 -46 -58 -37 -145 25
-275 49 -101 188 -242 323 -325 343 -213 984 -399 1583 -460 38 -4 70 -13 72
-19 1 -6 10 -85 20 -176 34 -329 119 -827 216 -1258 171 -764 387 -1313 550
-1397 44 -23 597 -22 645 1 40 19 65 58 197 310 299 571 536 1138 633 1514 19
74 36 135 38 137 1 1 83 -24 182 -56 617 -202 1348 -311 2081 -311 874 0 1694
155 2392 452 51 21 94 38 96 36 6 -6 46 -151 105 -383 125 -489 186 -694 260
-880 89 -226 226 -475 284 -520 41 -31 76 -32 429 -5 275 20 299 26 330 79 18
31 375 1156 545 1721 331 1094 498 1787 558 2315 21 184 24 467 6 595 l-14 95
55 265 c30 146 60 278 66 293 l11 28 28 -21 c39 -30 143 -150 225 -260 95
-128 114 -148 172 -178 68 -35 187 -38 257 -5 156 72 283 295 383 676 23 85
11 133 -40 173 -49 37 -108 35 -183 -7 -99 -56 -178 -116 -242 -186 -69 -76
-99 -90 -137 -66 -13 9 -96 101 -184 205 -231 272 -318 338 -448 338 -134 0
-227 -88 -290 -273 l-17 -48 -75 103 c-601 816 -1435 1429 -2419 1778 -86 31
-90 36 -33 45 164 24 481 164 663 293 122 86 317 281 400 399 284 405 375 881
259 1345 -76 301 -216 545 -444 773 -150 150 -265 232 -475 339 -91 46 -187
96 -215 112 -316 185 -762 276 -1145 233z"/>
</g>
</svg>
