<svg width="38" height="38" viewBox="0 0 38 38" fill="none" xmlns="http://www.w3.org/2000/svg">
<circle cx="19" cy="19" r="19" fill="#00A880"/>
<path d="M28.219 13.7813C27.6981 13.2605 27.0698 13 26.3337 13H24.0003L23.4691 11.5835C23.3371 11.2432 23.0959 10.9498 22.7451 10.7031C22.3943 10.4566 22.035 10.3333 21.6669 10.3333H16.3334C15.9653 10.3333 15.6059 10.4566 15.2552 10.7031C14.9045 10.9498 14.6632 11.2432 14.5313 11.5835L14 13H11.6667C10.9304 13 10.3021 13.2605 9.78119 13.7813C9.2604 14.3021 9 14.9306 9 15.6667V25.0001C9 25.7364 9.2604 26.3648 9.78119 26.8855C10.3021 27.4064 10.9305 27.6669 11.6667 27.6669H26.3334C27.0696 27.6669 27.6978 27.4064 28.2188 26.8855C28.7395 26.3648 29 25.7364 29 25.0001V15.6667C29.0001 14.9306 28.7397 14.3021 28.219 13.7813ZM22.2969 23.6305C21.3838 24.5437 20.2849 25.0004 19.0001 25.0004C17.7152 25.0004 16.6164 24.5437 15.7032 23.6305C14.7899 22.7174 14.3334 21.6182 14.3334 20.3337C14.3334 19.0488 14.79 17.95 15.7032 17.0367C16.6163 16.1235 17.7153 15.6669 19.0001 15.6669C20.2849 15.6669 21.3838 16.1236 22.2969 17.0367C23.2102 17.9499 23.6668 19.0488 23.6668 20.3337C23.6668 21.6182 23.2102 22.7173 22.2969 23.6305Z" fill="white"/>
<path d="M19.0001 17.3335C18.1737 17.3335 17.4671 17.6269 16.8802 18.2138C16.2934 18.8006 16 19.5071 16 20.3338C16 21.16 16.2934 21.8667 16.8802 22.4535C17.4671 23.0402 18.1737 23.3336 19.0001 23.3336C19.8264 23.3336 20.5331 23.0402 21.12 22.4535C21.7068 21.8667 22.0002 21.1601 22.0002 20.3338C22.0002 19.5072 21.7068 18.8007 21.12 18.2138C20.5332 17.6269 19.8264 17.3335 19.0001 17.3335Z" fill="white"/>
</svg>
