<svg width="14" height="14" viewBox="0 0 14 14" fill="none" xmlns="http://www.w3.org/2000/svg">
<path d="M0.547012 14C0.407641 14 0.270402 13.9467 0.16625 13.8458C0.00642578 13.6908 -0.0435313 13.4545 0.0398945 13.2482L1.2816 10.1766C0.44193 9.08504 0 7.80459 0 6.45312C0 4.72021 0.734316 3.09375 2.06773 1.87335C3.38764 0.665301 5.13931 0 7 0C8.86069 0 10.6124 0.665301 11.9323 1.87335C13.2657 3.09375 14 4.72021 14 6.45312C14 7.69584 13.6161 8.9025 12.8898 9.9426C12.7168 10.1902 12.3759 10.2508 12.1283 10.0779C11.8806 9.90495 11.8201 9.56402 11.993 9.31637C12.5905 8.46084 12.9062 7.47072 12.9062 6.45312C12.9062 3.49795 10.2567 1.09375 7 1.09375C3.74328 1.09375 1.09375 3.49795 1.09375 6.45312C1.09375 7.65032 1.51968 8.78281 2.32548 9.72817C2.45766 9.88323 2.49268 10.099 2.41629 10.2879L1.55862 12.4095L4.05634 11.3084C4.19478 11.2474 4.35236 11.2465 4.49154 11.3058C5.27959 11.642 6.12352 11.8125 7 11.8125C8.00877 11.8125 9.00427 11.5777 9.87891 11.1335C10.1483 10.9968 10.4774 11.1042 10.6142 11.3734C10.7509 11.6427 10.6435 11.9719 10.3742 12.1087C9.34686 12.6305 8.18007 12.9062 7 12.9062C6.05719 12.9062 5.14514 12.737 4.28542 12.4028L0.767484 13.9535C0.696555 13.9848 0.621469 14 0.547012 14ZM7.54688 8.88672V5.93359C7.54688 5.63155 7.30204 5.38672 7 5.38672C6.69796 5.38672 6.45312 5.63155 6.45312 5.93359V8.88672C6.45312 9.18876 6.69796 9.43359 7 9.43359C7.30204 9.43359 7.54688 9.18876 7.54688 8.88672ZM7 3.5C6.69796 3.5 6.45312 3.74484 6.45312 4.04688C6.45312 4.34891 6.69796 4.59375 7 4.59375C7.30204 4.59375 7.54688 4.34891 7.54688 4.04688C7.54688 3.74484 7.30204 3.5 7 3.5Z" fill="#A6A6A6"/>
</svg>
