<svg width="26" height="26" viewBox="0 0 26 26" fill="none" xmlns="http://www.w3.org/2000/svg">
<path d="M19.9062 9.34375V8.53125C20.5782 8.53125 21.125 7.98444 21.125 7.3125C21.125 6.64056 20.5782 6.09375 19.9062 6.09375H19.0938C18.8695 6.09375 18.6875 5.91175 18.6875 5.6875C18.6875 5.46325 18.8695 5.28125 19.0938 5.28125H20.3125V5.6875H21.125V4.46875H19.9062V3.65625H19.0938V4.46875C18.4218 4.46875 17.875 5.01556 17.875 5.6875C17.875 6.35944 18.4218 6.90625 19.0938 6.90625H19.9062C20.1305 6.90625 20.3125 7.08825 20.3125 7.3125C20.3125 7.53675 20.1305 7.71875 19.9062 7.71875H18.6875V7.3125H17.875V8.53125H19.0938V9.34375H19.9062Z" fill="white"/>
<path d="M23.9688 6.5C23.9688 4.03609 21.9639 2.03125 19.5 2.03125C17.0361 2.03125 15.0312 4.03609 15.0312 6.5C15.0312 8.96391 17.0361 10.9688 19.5 10.9688C21.9639 10.9688 23.9688 8.96391 23.9688 6.5ZM15.8438 6.5C15.8438 4.48378 17.4838 2.84375 19.5 2.84375C21.5162 2.84375 23.1562 4.48378 23.1562 6.5C23.1562 8.51622 21.5162 10.1562 19.5 10.1562C17.4838 10.1562 15.8438 8.51622 15.8438 6.5Z" fill="white"/>
<path d="M25.5938 6.5C25.5938 3.13991 22.8601 0.40625 19.5 0.40625C16.1399 0.40625 13.4062 3.13991 13.4062 6.5C13.4062 9.087 15.0292 11.297 17.3087 12.1794L16.4881 13H13.2218L10.3781 16.25H5.50997L0.514313 21.6617L1.11109 22.2129L5.86544 17.0625H10.7473L13.5911 13.8125H16.8248L18.1894 12.4479C18.5616 12.53 18.9463 12.5755 19.3403 12.5856L17.3006 14.625H13.6094L11.1719 17.875H6.31556L0.40625 24.6285V25.5938H23.9688V10.6291C24.9738 9.542 25.5938 8.09372 25.5938 6.5ZM14.2188 6.5C14.2188 3.588 16.588 1.21875 19.5 1.21875C22.412 1.21875 24.7812 3.588 24.7812 6.5C24.7812 9.412 22.412 11.7812 19.5 11.7812C16.588 11.7812 14.2188 9.412 14.2188 6.5ZM20.7188 12.4711V24.7812H19.0938V13.9807L20.5827 12.4918C20.6278 12.4837 20.6741 12.48 20.7188 12.4711ZM17.6369 15.4375L18.2812 14.7932V24.7812H16.6562V15.4375H17.6369ZM6.09375 24.7812H4.46875V21.2197L6.09375 19.3627V24.7812ZM6.90625 18.6875H8.53125V24.7812H6.90625V18.6875ZM9.34375 18.6875H10.9688V24.7812H9.34375V18.6875ZM11.7812 18.4165L13.4062 16.25V24.7812H11.7812V18.4165ZM14.2188 15.4375H15.8438V24.7812H14.2188V15.4375ZM3.65625 22.1483V24.7812H1.35241L3.65625 22.1483ZM21.5312 24.7812V12.2383C22.1199 12.0291 22.6663 11.7329 23.1562 11.3636V24.7812H21.5312Z" fill="white"/>
<path d="M2.84375 15.4375H3.65625V13.8125H4.46875V8.9375H3.65625V7.3125H2.84375V8.9375H2.03125V13.8125H2.84375V15.4375ZM2.84375 9.75H3.65625V13H2.84375V9.75Z" fill="white"/>
<path d="M6.09375 13.4062H6.90625V11.7812H7.71875V7.71875H6.90625V6.09375H6.09375V7.71875H5.28125V11.7812H6.09375V13.4062ZM6.09375 8.53125H6.90625V10.9688H6.09375V8.53125Z" fill="white"/>
<path d="M9.34375 10.5625H10.1562V8.9375H10.9688V5.6875H10.1562V4.0625H9.34375V5.6875H8.53125V8.9375H9.34375V10.5625ZM9.34375 6.5H10.1562V8.125H9.34375V6.5Z" fill="white"/>
</svg>
