<svg width="27" height="27" viewBox="0 0 27 27" fill="none" xmlns="http://www.w3.org/2000/svg">
<rect x="1.86719" y="22.8948" width="4.33333" height="4.10526" fill="white"/>
<rect x="8.80078" y="20.158" width="4.33333" height="6.84211" fill="white"/>
<rect x="15.7324" y="17.4209" width="4.33333" height="9.57895" fill="white"/>
<rect x="22.666" y="13.3157" width="4.33333" height="13.6842" fill="white"/>
<path d="M0.578169 17.8368C0.429915 18.0698 0.498592 18.3788 0.731562 18.5271L4.52804 20.943C4.76101 21.0913 5.07005 21.0226 5.21831 20.7896C5.36656 20.5567 5.29788 20.2476 5.06491 20.0994L1.69027 17.9519L3.83777 14.5772C3.98602 14.3443 3.91735 14.0352 3.68438 13.887C3.45141 13.7387 3.14236 13.8074 2.99411 14.0403L0.578169 17.8368ZM25.7786 0.896248C25.7213 0.626116 25.4559 0.453582 25.1857 0.510883L20.7837 1.44465C20.5135 1.50195 20.341 1.76739 20.3983 2.03752C20.4556 2.30765 20.721 2.48019 20.9912 2.42289L24.9041 1.59287L25.7341 5.50581C25.7914 5.77594 26.0569 5.94847 26.327 5.89117C26.5971 5.83387 26.7697 5.56843 26.7124 5.2983L25.7786 0.896248ZM1.10847 18.5934C6.32294 17.4346 18.4999 12.363 25.7087 1.27249L24.8703 0.727506C17.8475 11.5317 5.94022 16.4952 0.891535 17.6172L1.10847 18.5934Z" fill="white"/>
</svg>
