<svg width="18" height="26" viewBox="0 0 18 26" fill="none" xmlns="http://www.w3.org/2000/svg">
<path d="M17.0405 23.4657C16.8385 18.8528 14.9785 14.8352 12.2612 12.9997C14.9799 11.1648 16.8399 7.14649 17.0405 2.53425C17.4869 2.31485 17.7336 2.07519 17.7336 1.82156C17.7336 0.815404 13.8243 0 8.9996 0C4.17565 0 0.265625 0.815404 0.265625 1.82226C0.265625 2.07519 0.512971 2.31555 0.958753 2.53425C1.16068 7.14579 3.02067 11.1648 5.73799 13.0003C3.01997 14.8345 1.15998 18.8535 0.958753 23.4657C0.512971 23.6844 0.265625 23.9248 0.265625 24.1791C0.265625 25.1846 4.17565 26.0007 8.9996 26.0007C13.8236 26.0007 17.7336 25.1853 17.7336 24.1791C17.7336 23.9241 17.4869 23.6838 17.0405 23.4657ZM7.36041 13.6634C7.60147 13.5684 7.76427 13.3008 7.76427 13.0003C7.76427 12.6985 7.60147 12.4316 7.36041 12.3359C4.532 11.2263 2.48965 7.46091 2.16544 2.95488C3.7655 3.37481 6.22918 3.64451 8.9996 3.64451C11.77 3.64451 14.2337 3.37481 15.8338 2.95488C15.5096 7.46091 13.4679 11.2263 10.6388 12.3359C10.397 12.4309 10.2349 12.6985 10.2349 13.0003C10.2349 13.3015 10.397 13.5684 10.6388 13.6634C13.4679 14.773 15.5096 18.5384 15.8345 23.0444C15.5773 22.9766 15.2964 22.9138 14.9967 22.8551C14.0758 19.1274 9.0003 15.8588 9.0003 15.8588C9.0003 15.8588 3.92551 19.1274 3.0039 22.8551C2.70415 22.9138 2.42327 22.9773 2.16614 23.0444C2.49034 18.5377 4.532 14.773 7.36041 13.6634ZM8.9996 12.1416C8.9996 12.1416 7.90052 11.2773 6.63304 9.89455C10.0833 9.1546 12.8929 7.51681 14.4168 5.40668C12.7908 9.1581 8.9996 12.1416 8.9996 12.1416Z" fill="white"/>
</svg>
