<svg width="30" height="30" viewBox="0 0 30 30" fill="none" xmlns="http://www.w3.org/2000/svg">
<path d="M29.5283 0H7.94794C7.68725 0 7.47628 0.21142 7.47628 0.471883V2.35699H3.97681C3.84105 2.35699 3.71132 2.41575 3.62185 2.5182C3.53237 2.62099 3.49189 2.7568 3.5094 2.89172L3.6927 4.24601H0.471703C0.323742 4.24601 0.183403 4.31582 0.0942069 4.4344C0.00512124 4.55292 -0.0227146 4.70641 0.0189839 4.84967L7.19814 29.4619C7.25812 29.6683 7.44623 29.8022 7.65152 29.8022C7.69515 29.8022 29.528 29.8022 29.528 29.8022C29.7885 29.8022 30 29.5918 30 29.3301V0.47216C30 0.21142 29.7884 0 29.5283 0ZM7.47633 3.30081V25.1602L4.51745 3.30081H7.47633ZM3.82023 5.1895L6.17556 22.5866L1.1006 5.1895H3.82023ZM29.0564 28.8585H8.4196V0.943933H29.0569V28.8585H29.0564ZM16.674 4.67056H9.17249V2.54725H16.6737L16.674 4.67056ZM28.3505 4.67056H20.8492V2.54725H28.3503L28.3505 4.67056ZM17.1582 3.60905C17.1582 2.73664 17.8657 2.02859 18.738 2.02859C19.6107 2.02859 20.3188 2.73636 20.3188 3.60905C20.3188 4.48195 19.6104 5.1895 18.738 5.1895C17.8654 5.1895 17.1582 4.48173 17.1582 3.60905ZM27.2383 15.1136H20.8492V7.94194H27.2381L27.2383 15.1136ZM17.7944 8.99594H9.93942V8.2093H17.7944V8.99594ZM9.93942 11.2286H17.7944V12.0152H9.93942V11.2286ZM10.0278 14.3164H17.8829V15.103H10.0278V14.3164ZM9.93942 17.427H27.2383V18.2134H9.93942V17.427ZM9.93942 20.5327H27.2383V21.319H9.93942V20.5327ZM9.93942 23.599H27.2383V24.3859H9.93942V23.599Z" fill="white"/>
</svg>
