<svg width="30" height="24" viewBox="0 0 30 24" fill="none" xmlns="http://www.w3.org/2000/svg">
<path d="M25.5469 19.6172C25.8705 19.6172 26.1328 19.3549 26.1328 19.0312C26.1328 18.7076 25.8705 18.4453 25.5469 18.4453C25.2233 18.4453 24.9609 18.7076 24.9609 19.0312C24.9609 19.3549 25.2233 19.6172 25.5469 19.6172Z" fill="white"/>
<path d="M22.0312 19.6172C22.3549 19.6172 22.6172 19.3549 22.6172 19.0312C22.6172 18.7076 22.3549 18.4453 22.0312 18.4453C21.7076 18.4453 21.4453 18.7076 21.4453 19.0312C21.4453 19.3549 21.7076 19.6172 22.0312 19.6172Z" fill="white"/>
<path d="M18.5156 19.6172C18.8392 19.6172 19.1016 19.3549 19.1016 19.0312C19.1016 18.7076 18.8392 18.4453 18.5156 18.4453C18.192 18.4453 17.9297 18.7076 17.9297 19.0312C17.9297 19.3549 18.192 19.6172 18.5156 19.6172Z" fill="white"/>
<path d="M15 19.6172C15.3236 19.6172 15.5859 19.3549 15.5859 19.0312C15.5859 18.7076 15.3236 18.4453 15 18.4453C14.6764 18.4453 14.4141 18.7076 14.4141 19.0312C14.4141 19.3549 14.6764 19.6172 15 19.6172Z" fill="white"/>
<path d="M6.44531 3.21094C6.44531 1.91859 5.39391 0.867188 4.10156 0.867188C2.80922 0.867188 1.75781 1.91859 1.75781 3.21094C1.75781 4.50328 2.80922 5.55469 4.10156 5.55469C5.39391 5.55469 6.44531 4.50328 6.44531 3.21094ZM4.10156 4.38281C3.45539 4.38281 2.92969 3.85711 2.92969 3.21094C2.92969 2.56477 3.45539 2.03906 4.10156 2.03906C4.74773 2.03906 5.27344 2.56477 5.27344 3.21094C5.27344 3.85711 4.74773 4.38281 4.10156 4.38281Z" fill="white"/>
<path d="M0.585938 10.8281H7.61719C7.9408 10.8281 8.20312 10.5657 8.20312 10.2422V9.65625C8.20312 7.39307 6.37219 5.55469 4.10156 5.55469C1.83996 5.55469 0 7.39465 0 9.65625V10.2422C0 10.5657 0.262324 10.8281 0.585938 10.8281ZM4.10156 6.72656C5.71799 6.72656 7.03125 8.03408 7.03125 9.65625H1.17188C1.17188 8.04082 2.48613 6.72656 4.10156 6.72656Z" fill="white"/>
<path d="M0.585938 23.1328H7.61719C7.9408 23.1328 8.20312 22.8704 8.20312 22.5469V19.0312C8.20312 18.7077 7.9408 18.4453 7.61719 18.4453H6.44531V15.5156C6.44531 14.2233 5.39391 13.1719 4.10156 13.1719C2.80922 13.1719 1.75781 14.2233 1.75781 15.5156V18.4453H0.585938C0.262324 18.4453 0 18.7077 0 19.0312V22.5469C0 22.8704 0.262324 23.1328 0.585938 23.1328ZM2.92969 15.5156C2.92969 14.8695 3.45539 14.3438 4.10156 14.3438C4.74773 14.3438 5.27344 14.8695 5.27344 15.5156V18.4453H2.92969V15.5156ZM1.17188 19.6172H7.03125V21.9609H1.17188V19.6172Z" fill="white"/>
<path d="M26.4844 6.72656C26.4844 6.40301 26.2221 6.14062 25.8984 6.14062H14.6484C14.3248 6.14062 14.0625 6.40301 14.0625 6.72656C14.0625 7.05012 14.3248 7.3125 14.6484 7.3125H25.8984C26.2221 7.3125 26.4844 7.05012 26.4844 6.72656Z" fill="white"/>
<path d="M25.8984 14.9297H14.6484C12.3868 14.9297 10.5469 16.7696 10.5469 19.0312C10.5469 21.2929 12.3868 23.1328 14.6484 23.1328H17.6367C17.9603 23.1328 18.2227 22.8704 18.2227 22.5469C18.2227 22.2233 17.9603 21.9609 17.6367 21.9609H14.6484C13.033 21.9609 11.7188 20.6467 11.7188 19.0312C11.7188 17.4158 13.033 16.1016 14.6484 16.1016H25.8984C27.5139 16.1016 28.8281 17.4158 28.8281 19.0312C28.8281 20.6467 27.5139 21.9609 25.8984 21.9609H22.9102C22.5865 21.9609 22.3242 22.2233 22.3242 22.5469C22.3242 22.8704 22.5865 23.1328 22.9102 23.1328H25.8984C28.16 23.1328 30 21.2929 30 19.0312C30 16.7696 28.16 14.9297 25.8984 14.9297Z" fill="white"/>
<path d="M25.8984 2.625H14.6484C12.3868 2.625 10.5469 4.46496 10.5469 6.72656C10.5469 8.98816 12.3868 10.8281 14.6484 10.8281H17.6367C17.9603 10.8281 18.2227 10.5657 18.2227 10.2422C18.2227 9.91863 17.9603 9.65625 17.6367 9.65625H14.6484C13.033 9.65625 11.7188 8.34199 11.7188 6.72656C11.7188 5.11113 13.033 3.79688 14.6484 3.79688H25.8984C27.5139 3.79688 28.8281 5.11113 28.8281 6.72656C28.8281 8.34199 27.5139 9.65625 25.8984 9.65625H22.9102C22.5865 9.65625 22.3242 9.91863 22.3242 10.2422C22.3242 10.5657 22.5865 10.8281 22.9102 10.8281H25.8984C28.16 10.8281 30 8.98816 30 6.72656C30 4.46496 28.16 2.625 25.8984 2.625Z" fill="white"/>
<path d="M20.2734 10.8281C20.597 10.8281 20.8594 10.5658 20.8594 10.2422C20.8594 9.91858 20.597 9.65625 20.2734 9.65625C19.9498 9.65625 19.6875 9.91858 19.6875 10.2422C19.6875 10.5658 19.9498 10.8281 20.2734 10.8281Z" fill="white"/>
<path d="M20.2734 23.1328C20.597 23.1328 20.8594 22.8705 20.8594 22.5469C20.8594 22.2233 20.597 21.9609 20.2734 21.9609C19.9498 21.9609 19.6875 22.2233 19.6875 22.5469C19.6875 22.8705 19.9498 23.1328 20.2734 23.1328Z" fill="white"/>
</svg>
