<svg width="29" height="19" viewBox="0 0 29 19" fill="none" xmlns="http://www.w3.org/2000/svg">
<path d="M28.4146 1.9859H24.9308C24.6072 1.9859 24.3449 2.24823 24.3449 2.57184V3.07774H22.7111C22.3875 3.07774 22.1252 3.34006 22.1252 3.66368V3.83231C21.1728 3.74917 20.8595 3.56858 19.9849 3.0642C19.3122 2.67631 18.2956 2.09008 16.4647 1.2669C16.4562 1.26303 16.4477 1.25946 16.4389 1.25606C15.843 1.02157 14.281 0.5602 12.6128 1.31624L10.255 2.16045L8.26755 0.173071C8.03875 -0.0557373 7.66773 -0.0557373 7.43892 0.173071L0.914039 6.6979C0.702985 6.90901 0.662496 7.27504 0.914039 7.52659L12.0637 18.6762C12.2421 18.8547 12.6599 18.9087 12.8924 18.6762L18.8493 12.7193C19.0042 12.7327 19.1649 12.7399 19.3315 12.7399C20.8623 12.7399 22.2164 11.6898 22.991 10.5452H28.4146C28.7382 10.5452 29.0005 10.2829 29.0005 9.95928V2.57184C29.0005 2.24823 28.7382 1.9859 28.4146 1.9859ZM7.85318 1.41602L9.18865 2.75149C8.79168 2.997 8.33271 3.12836 7.85318 3.12836C7.37359 3.12836 6.91468 2.99706 6.51771 2.75149L7.85318 1.41602ZM3.49252 8.44774L2.15705 7.11221L3.49252 5.77674C3.73802 6.17372 3.86939 6.63268 3.86939 7.11221C3.86939 7.59174 3.73808 8.05071 3.49252 8.44774ZM12.478 17.4332L11.1428 16.098C11.958 15.5949 12.9979 15.5949 13.8132 16.098L12.478 17.4332ZM14.6574 15.2539C13.3626 14.3146 11.5935 14.3146 10.2986 15.2539L4.33668 9.29184C4.79423 8.66254 5.04127 7.90663 5.04127 7.11221C5.04127 6.31774 4.79429 5.56188 4.33668 4.93258L5.67361 3.59571C6.30291 4.05327 7.05877 4.3003 7.85324 4.3003C8.64771 4.3003 9.40357 4.05327 10.0329 3.59571L11.3002 4.86303C11.0267 4.9034 10.7601 4.99352 10.5114 5.1321C10.0914 5.36612 9.76187 5.71657 9.55667 6.14055C8.89574 6.26295 8.28384 6.58294 7.80384 7.06288C6.5016 8.36518 6.5016 10.4841 7.8039 11.7864C8.455 12.4375 9.31029 12.7631 10.1656 12.7631C11.0209 12.7631 11.8763 12.4376 12.5274 11.7864C12.9511 11.3628 13.2478 10.8421 13.3965 10.2747L15.3749 10.9461C15.1521 11.9778 15.3802 13.0632 15.9955 13.9158L14.6574 15.2539ZM11.0951 9.49335C11.1002 9.49522 11.1054 9.4971 11.1106 9.49885L12.2822 9.89653C12.1937 10.2958 11.9935 10.663 11.6988 10.9578C10.8534 11.8031 9.47787 11.8032 8.63259 10.9578C7.7872 10.1124 7.7872 8.73696 8.63259 7.89157C8.8365 7.68754 9.07714 7.52811 9.33935 7.42001C9.44752 8.32012 10.0956 9.12245 11.0951 9.49335ZM16.8398 13.0714C16.6136 12.7029 16.4857 12.2822 16.4655 11.8529C16.7461 12.0558 17.0891 12.2546 17.4988 12.4124L16.8398 13.0714ZM22.1251 9.72567C21.5697 10.6361 20.4927 11.5679 19.3315 11.5679C19.1142 11.5679 18.9106 11.5524 18.7202 11.5249C18.7194 11.5248 18.7187 11.5247 18.7179 11.5246C17.4525 11.3407 16.7719 10.6216 16.5475 10.3368C16.5355 10.3192 16.4846 10.2526 16.4771 10.2415C16.4088 10.1195 16.2969 10.0215 16.1542 9.97299L11.4955 8.39184C10.752 8.11282 10.3591 7.4762 10.5392 6.84127C10.5393 6.84086 10.5394 6.84045 10.5395 6.84004C10.5397 6.83958 10.5398 6.83905 10.5399 6.83858C10.6237 6.5462 10.816 6.30368 11.0818 6.15561C11.3458 6.00848 11.651 5.97198 11.9421 6.05266L17.1917 7.7162C17.5002 7.81411 17.8295 7.64313 17.9273 7.33463C18.025 7.02614 17.8542 6.69684 17.5457 6.59905L13.3706 5.276L13.3342 5.23956C13.3338 5.2392 13.3335 5.23879 13.333 5.23844L11.1715 3.07692L13.0294 2.41165C13.0357 2.40936 13.0434 2.40649 13.0496 2.40397C13.0512 2.40333 13.0543 2.40215 13.0558 2.40151C13.0637 2.39829 13.0716 2.39489 13.0794 2.39131C14.3354 1.81405 15.5293 2.15958 15.9973 2.34157C17.7658 3.13733 18.7098 3.68161 19.3994 4.07928C20.3583 4.63223 20.8203 4.89866 22.1251 5.00641V9.72567ZM24.3449 9.37323H23.297V4.24961H24.3449V9.37323ZM27.8287 9.37323H25.5167V3.15778H27.8287V9.37323Z" fill="white"/>
</svg>
