<svg width="26" height="26" viewBox="0 0 26 26" fill="none" xmlns="http://www.w3.org/2000/svg">
<path d="M2.51562 23.4839H3.35433V24.3226H2.51562V23.4839Z" fill="white"/>
<path d="M4.19336 23.4839H5.03207V24.3226H4.19336V23.4839Z" fill="white"/>
<path d="M5.87109 23.4839H6.7098V24.3226H5.87109V23.4839Z" fill="white"/>
<path d="M20.1289 23.4839H23.4837V24.3226H20.1289V23.4839Z" fill="white"/>
<path d="M25.1613 21.8065V7.96774C25.1613 6.81165 24.2206 5.87097 23.0645 5.87097H21.8065C21.8065 2.63346 19.173 0 15.9355 0C12.698 0 10.0645 2.63346 10.0645 5.87097H2.93548C1.77939 5.87097 0.83871 6.81165 0.83871 7.96774V21.8065H0V23.9032C0 25.0593 0.940682 26 2.09677 26H23.9032C25.0593 26 26 25.0593 26 23.9032V21.8065H25.1613ZM23.0645 6.70968C23.758 6.70968 24.3226 7.27421 24.3226 7.96774V21.8065H23.4839V8.3871C23.4839 7.92454 23.1077 7.54839 22.6452 7.54839H21.5591C21.64 7.27667 21.6983 6.99614 21.7393 6.70968H23.0645ZM11.1469 4.32992L15.5978 6.18466L17.1219 10.756C16.7406 10.8488 16.3448 10.9032 15.9355 10.9032C13.1605 10.9032 10.9032 8.64592 10.9032 5.87097C10.9032 5.33326 10.99 4.81582 11.1469 4.32992ZM17.9186 10.4943L16.4152 5.9842L19.7742 2.62506C20.5173 3.50206 20.9677 4.6342 20.9677 5.87097C20.9677 7.94174 19.7097 9.72318 17.9186 10.4943ZM15.9355 0.83871C17.1723 0.83871 18.3044 1.28919 19.1818 2.03186L15.8378 5.37565L11.4719 3.55694C12.311 1.94423 13.9951 0.83871 15.9355 0.83871ZM1.67742 7.96774C1.67742 7.27421 2.24195 6.70968 2.93548 6.70968H10.1317C10.1726 6.99614 10.2306 7.27667 10.3119 7.54839H3.35484C2.89228 7.54839 2.51613 7.92454 2.51613 8.3871V21.8065H1.67742V7.96774ZM25.1613 23.9032C25.1613 24.5968 24.5968 25.1613 23.9032 25.1613H2.09677C1.40324 25.1613 0.83871 24.5968 0.83871 23.9032V22.6452H9.47828C10.0813 23.1874 10.8529 23.4839 11.6703 23.4839H14.3301C15.1476 23.4839 15.9191 23.1874 16.5221 22.6452H21.8065V21.8065H16.1812L16.0583 21.9293C15.5966 22.3911 14.9831 22.6452 14.3297 22.6452H11.6699C11.0169 22.6452 10.403 22.3911 9.94125 21.9293L9.8188 21.8065H3.35484V8.3871H10.6391C11.5839 10.3674 13.5993 11.7419 15.9355 11.7419C18.2716 11.7419 20.2871 10.3674 21.2319 8.3871H22.6452V22.6452H25.1613V23.9032Z" fill="white"/>
<path d="M20.5482 17.6128C20.2908 17.6128 20.0512 17.6912 19.8516 17.8245L18.3886 16.7276C18.4258 16.6089 18.4514 16.4852 18.4514 16.3547C18.4514 15.6612 17.8869 15.0967 17.1934 15.0967C16.4998 15.0967 15.9353 15.6612 15.9353 16.3547C15.9353 16.4991 15.9646 16.6357 16.0094 16.7649L13.6608 18.644C13.4683 18.524 13.2431 18.4515 12.9998 18.4515C12.7176 18.4515 12.4596 18.5484 12.2496 18.7056L10.4413 17.5C10.4665 17.4015 10.4837 17.2999 10.4837 17.1935C10.4837 16.4999 9.91915 15.9354 9.22562 15.9354C8.53208 15.9354 7.96755 16.4999 7.96755 17.1935C7.96755 17.2999 7.98475 17.4015 8.00994 17.5L6.20168 18.7056C5.99159 18.548 5.73359 18.4515 5.45142 18.4515C4.75789 18.4515 4.19336 19.0161 4.19336 19.7096C4.19336 20.4031 4.75789 20.9676 5.45142 20.9676C6.14496 20.9676 6.70949 20.4031 6.70949 19.7096C6.70949 19.6031 6.69229 19.5015 6.6671 19.4031L8.47537 18.1974C8.68545 18.3551 8.94345 18.4515 9.22562 18.4515C9.50778 18.4515 9.76578 18.3551 9.97587 18.1974L11.7841 19.4031C11.7589 19.5015 11.7417 19.6035 11.7417 19.7096C11.7417 20.4031 12.3063 20.9676 12.9998 20.9676C13.6933 20.9676 14.2579 20.4031 14.2579 19.7096C14.2579 19.5652 14.2286 19.4286 14.1838 19.2994L16.5324 17.4203C16.7249 17.5403 16.9501 17.6128 17.1934 17.6128C17.4507 17.6128 17.6903 17.5344 17.89 17.4011L19.353 18.498C19.3157 18.6168 19.2901 18.7404 19.2901 18.8709C19.2901 19.5644 19.8547 20.1289 20.5482 20.1289C21.2417 20.1289 21.8063 19.5644 21.8063 18.8709C21.8063 18.1773 21.2417 17.6128 20.5482 17.6128ZM5.45142 20.1289C5.22045 20.1289 5.03207 19.9406 5.03207 19.7096C5.03207 19.4786 5.22045 19.2902 5.45142 19.2902C5.6824 19.2902 5.87078 19.4786 5.87078 19.7096C5.87078 19.9406 5.6824 20.1289 5.45142 20.1289ZM9.22562 17.6128C8.99464 17.6128 8.80626 17.4244 8.80626 17.1935C8.80626 16.9625 8.99464 16.7741 9.22562 16.7741C9.45659 16.7741 9.64497 16.9625 9.64497 17.1935C9.64497 17.4244 9.45659 17.6128 9.22562 17.6128ZM12.9998 20.1289C12.7688 20.1289 12.5805 19.9406 12.5805 19.7096C12.5805 19.4786 12.7688 19.2902 12.9998 19.2902C13.2308 19.2902 13.4192 19.4786 13.4192 19.7096C13.4192 19.9406 13.2308 20.1289 12.9998 20.1289ZM17.1934 16.7741C16.9624 16.7741 16.774 16.5857 16.774 16.3547C16.774 16.1238 16.9624 15.9354 17.1934 15.9354C17.4243 15.9354 17.6127 16.1238 17.6127 16.3547C17.6127 16.5857 17.4243 16.7741 17.1934 16.7741ZM20.5482 19.2902C20.3172 19.2902 20.1288 19.1018 20.1288 18.8709C20.1288 18.6399 20.3172 18.4515 20.5482 18.4515C20.7792 18.4515 20.9676 18.6399 20.9676 18.8709C20.9676 19.1018 20.7792 19.2902 20.5482 19.2902Z" fill="white"/>
<path d="M10.903 9.22583H4.19336V15.0968H10.903V9.22583ZM10.0643 14.2581H5.03207V10.0645H10.0643V14.2581Z" fill="white"/>
<path d="M5.87109 10.9033H9.22593V11.742H5.87109V10.9033Z" fill="white"/>
<path d="M5.87109 12.5806H9.22593V13.4193H5.87109V12.5806Z" fill="white"/>
<path d="M11.7422 13.4194H12.5809V14.2581H11.7422V13.4194Z" fill="white"/>
<path d="M13.4199 13.4194H21.807V14.2581H13.4199V13.4194Z" fill="white"/>
</svg>
