<svg width="30" height="30" viewBox="0 0 30 30" fill="none" xmlns="http://www.w3.org/2000/svg">
<path d="M2.90234 27.0967H3.87009V28.0644H2.90234V27.0967Z" fill="white"/>
<path d="M4.83984 27.0967H5.80759V28.0644H4.83984V27.0967Z" fill="white"/>
<path d="M6.77344 27.0967H7.74118V28.0644H6.77344V27.0967Z" fill="white"/>
<path d="M23.2266 27.0967H27.0975V28.0644H23.2266V27.0967Z" fill="white"/>
<path d="M29.0323 25.1613V9.19355C29.0323 7.8596 27.9469 6.77419 26.6129 6.77419H25.1613C25.1613 3.03861 22.1227 0 18.3871 0C14.6515 0 11.6129 3.03861 11.6129 6.77419H3.3871C2.05314 6.77419 0.967742 7.8596 0.967742 9.19355V25.1613H0V27.5806C0 28.9146 1.0854 30 2.41935 30H27.5806C28.9146 30 30 28.9146 30 27.5806V25.1613H29.0323ZM26.6129 7.74194C27.4131 7.74194 28.0645 8.39332 28.0645 9.19355V25.1613H27.0968V9.67742C27.0968 9.1437 26.6628 8.70968 26.129 8.70968H24.8759C24.9692 8.39615 25.0365 8.07247 25.0838 7.74194H26.6129ZM12.8618 4.99606L17.9975 7.13615L19.756 12.4108C19.3161 12.5178 18.8594 12.5806 18.3871 12.5806C15.1852 12.5806 12.5806 9.97606 12.5806 6.77419C12.5806 6.15376 12.6808 5.55672 12.8618 4.99606ZM20.6753 12.1088L18.9407 6.90485L22.8164 3.02892C23.6738 4.04084 24.1935 5.34715 24.1935 6.77419C24.1935 9.16354 22.7419 11.219 20.6753 12.1088ZM18.3871 0.967742C19.8141 0.967742 21.1204 1.48753 22.1328 2.34446L18.2744 6.20267L13.2368 4.10416C14.205 2.24334 16.1482 0.967742 18.3871 0.967742ZM1.93548 9.19355C1.93548 8.39332 2.58687 7.74194 3.3871 7.74194H11.6904C11.7377 8.07247 11.8045 8.39615 11.8983 8.70968H3.87097C3.33724 8.70968 2.90323 9.1437 2.90323 9.67742V25.1613H1.93548V9.19355ZM29.0323 27.5806C29.0323 28.3809 28.3809 29.0323 27.5806 29.0323H2.41935C1.61912 29.0323 0.967742 28.3809 0.967742 27.5806V26.129H10.9365C11.6323 26.7547 12.5225 27.0968 13.4657 27.0968H16.5348C17.4779 27.0968 18.3682 26.7547 19.064 26.129H25.1613V25.1613H18.6706L18.5289 25.303C17.9961 25.8358 17.2882 26.129 16.5343 26.129H13.4652C12.7118 26.129 12.0034 25.8358 11.4707 25.303L11.3294 25.1613H3.87097V9.67742H12.2759C13.366 11.9623 15.6915 13.5484 18.3871 13.5484C21.0826 13.5484 23.4082 11.9623 24.4983 9.67742H26.129V26.129H29.0323V27.5806Z" fill="white"/>
<path d="M23.7108 20.3227C23.4138 20.3227 23.1374 20.4131 22.907 20.567L21.2189 19.3013C21.2619 19.1643 21.2915 19.0215 21.2915 18.871C21.2915 18.0708 20.6401 17.4194 19.8398 17.4194C19.0396 17.4194 18.3882 18.0708 18.3882 18.871C18.3882 19.0376 18.422 19.1952 18.4738 19.3443L15.7638 21.5125C15.5417 21.374 15.2818 21.2904 15.0011 21.2904C14.6756 21.2904 14.3779 21.4022 14.1355 21.5836L12.049 20.1925C12.0781 20.0788 12.0979 19.9616 12.0979 19.8388C12.0979 19.0386 11.4465 18.3872 10.6463 18.3872C9.84607 18.3872 9.19468 19.0386 9.19468 19.8388C9.19468 19.9616 9.21453 20.0788 9.24359 20.1925L7.15713 21.5836C6.91472 21.4017 6.61703 21.2904 6.29146 21.2904C5.49123 21.2904 4.83984 21.9418 4.83984 22.742C4.83984 23.5422 5.49123 24.1936 6.29146 24.1936C7.09169 24.1936 7.74307 23.5422 7.74307 22.742C7.74307 22.6192 7.72322 22.502 7.69416 22.3883L9.78062 20.9972C10.023 21.1791 10.3207 21.2904 10.6463 21.2904C10.9719 21.2904 11.2696 21.1791 11.512 20.9972L13.5984 22.3883C13.5694 22.502 13.5495 22.6196 13.5495 22.742C13.5495 23.5422 14.2009 24.1936 15.0011 24.1936C15.8014 24.1936 16.4527 23.5422 16.4527 22.742C16.4527 22.5754 16.419 22.4179 16.3672 22.2688L19.0772 20.1006C19.2993 20.239 19.5592 20.3227 19.8398 20.3227C20.1368 20.3227 20.4133 20.2322 20.6436 20.0784L22.3317 21.344C22.2887 21.4811 22.2592 21.6238 22.2592 21.7743C22.2592 22.5745 22.9106 23.2259 23.7108 23.2259C24.511 23.2259 25.1624 22.5745 25.1624 21.7743C25.1624 20.974 24.511 20.3227 23.7108 20.3227ZM6.29146 23.2259C6.02495 23.2259 5.80759 23.0085 5.80759 22.742C5.80759 22.4755 6.02495 22.2581 6.29146 22.2581C6.55796 22.2581 6.77533 22.4755 6.77533 22.742C6.77533 23.0085 6.55796 23.2259 6.29146 23.2259ZM10.6463 20.3227C10.3798 20.3227 10.1624 20.1053 10.1624 19.8388C10.1624 19.5723 10.3798 19.3549 10.6463 19.3549C10.9128 19.3549 11.1302 19.5723 11.1302 19.8388C11.1302 20.1053 10.9128 20.3227 10.6463 20.3227ZM15.0011 23.2259C14.7346 23.2259 14.5173 23.0085 14.5173 22.742C14.5173 22.4755 14.7346 22.2581 15.0011 22.2581C15.2676 22.2581 15.485 22.4755 15.485 22.742C15.485 23.0085 15.2676 23.2259 15.0011 23.2259ZM19.8398 19.3549C19.5733 19.3549 19.356 19.1376 19.356 18.871C19.356 18.6045 19.5733 18.3872 19.8398 18.3872C20.1063 18.3872 20.3237 18.6045 20.3237 18.871C20.3237 19.1376 20.1063 19.3549 19.8398 19.3549ZM23.7108 22.2581C23.4443 22.2581 23.2269 22.0408 23.2269 21.7743C23.2269 21.5078 23.4443 21.2904 23.7108 21.2904C23.9773 21.2904 24.1947 21.5078 24.1947 21.7743C24.1947 22.0408 23.9773 22.2581 23.7108 22.2581Z" fill="white"/>
<path d="M12.5818 10.6453H4.83984V17.4195H12.5818V10.6453ZM11.614 16.4517H5.80759V11.613H11.614V16.4517Z" fill="white"/>
<path d="M6.77344 12.5806H10.6444V13.5483H6.77344V12.5806Z" fill="white"/>
<path d="M6.77344 14.5161H10.6444V15.4839H6.77344V14.5161Z" fill="white"/>
<path d="M13.5469 15.4839H14.5146V16.4516H13.5469V15.4839Z" fill="white"/>
<path d="M15.4844 15.4839H25.1618V16.4516H15.4844V15.4839Z" fill="white"/>
</svg>
