<svg width="200" height="192" viewBox="0 0 200 192" fill="none" xmlns="http://www.w3.org/2000/svg">
<path d="M177.763 68.1147L198.855 47.0225C199.725 46.1543 200.134 44.9259 199.96 43.7098C199.788 42.4937 199.051 41.4286 197.973 40.8366L172.616 26.9129C170.726 25.8753 168.351 26.5666 167.312 28.4571C166.275 30.3492 166.964 32.7235 168.856 33.7611L189.651 45.1792L171.55 63.2792L106.445 27.5294L124.545 9.42942L142.842 19.4773C144.732 20.5149 147.108 19.8252 148.146 17.9331C149.185 16.0426 148.494 13.6668 146.602 12.6292L125.735 1.16984C124.212 0.333656 122.32 0.603736 121.093 1.83207L99.9997 22.9258L78.9059 1.83207C77.6776 0.603736 75.7855 0.335182 74.2642 1.16984L2.02604 40.8366C0.948773 41.4286 0.211774 42.4922 0.0393492 43.7098C-0.134601 44.9259 0.274335 46.1543 1.14409 47.0225L22.2363 68.1147L1.14409 89.2054C0.274335 90.0752 -0.134601 91.302 0.0393492 92.5196C0.211774 93.7358 0.948773 94.8008 2.02604 95.3913L23.8553 107.379V147.445C23.8553 148.872 24.6319 150.184 25.8816 150.871L98.1198 190.536C98.7057 190.858 99.3527 191.018 99.9997 191.018C100.647 191.018 101.294 190.858 101.88 190.536L174.118 150.871C175.367 150.184 176.144 148.872 176.144 147.445V107.379L197.973 95.3929C199.051 94.8008 199.788 93.7358 199.96 92.5196C200.134 91.3035 199.725 90.0752 198.855 89.2069L177.763 68.1147ZM99.9997 103.323L35.8777 68.1132L99.9997 32.902L164.122 68.1132L99.9997 103.323ZM75.4559 9.42942L93.5544 27.5294L28.4497 63.2792L10.3497 45.1792L75.4559 9.42942ZM28.4527 72.9487L93.5574 108.699L75.4559 126.8L10.3497 91.0502L28.4527 72.9487ZM168.332 145.135L103.906 180.511V140.58C103.906 138.423 102.157 136.674 99.9997 136.674C97.8421 136.674 96.0934 138.423 96.0934 140.58V180.511L31.6678 145.135V111.669L74.2642 135.06C74.8547 135.383 75.5017 135.542 76.1426 135.542C77.1542 135.542 78.1552 135.148 78.9059 134.397L99.9997 113.304L121.093 134.397C121.844 135.15 122.845 135.542 123.857 135.542C124.498 135.542 125.145 135.383 125.735 135.06L168.332 111.669V145.135ZM124.545 126.8L106.443 108.697L171.548 72.9487L189.651 91.0487L124.545 126.8Z" fill="#9B9C9B"/>
</svg>
