<svg width="18" height="20" viewBox="0 0 18 20" fill="none" xmlns="http://www.w3.org/2000/svg">
<path d="M8.51581 6.1897C6.41452 6.1897 4.70508 7.89914 4.70508 10.0003C4.70508 12.1016 6.41452 13.811 8.51581 13.811C10.6169 13.811 12.3264 12.1016 12.3264 10.0003C12.3264 7.89914 10.6169 6.1897 8.51581 6.1897ZM10.7782 9.28266L8.04828 12.0126C7.93369 12.1272 7.78339 12.1846 7.63324 12.1846C7.4831 12.1846 7.33295 12.1274 7.21836 12.0126L6.17511 10.9694C5.94592 10.7403 5.94592 10.3688 6.17511 10.1396C6.40415 9.9104 6.7757 9.9104 7.00488 10.1396L7.63324 10.7679L9.94846 8.45288C10.1775 8.2237 10.549 8.2237 10.7782 8.45288C11.0074 8.68192 11.0074 9.05347 10.7782 9.28266Z" fill="#A6A6A6"/>
<path d="M17.0112 5.42651L17.0106 5.41095C17.0019 5.21884 16.9961 5.01559 16.9926 4.78946C16.9763 3.68671 16.0997 2.77454 14.9968 2.71289C12.6973 2.58457 10.9184 1.83475 9.39847 0.353278L9.3855 0.340919C8.88975 -0.11364 8.14191 -0.11364 7.646 0.340919L7.63303 0.353278C6.11311 1.83475 4.33424 2.58457 2.03475 2.71305C0.931998 2.77454 0.0552296 3.68671 0.0389027 4.78961C0.0355458 5.01422 0.0295949 5.21747 0.0208974 5.41095L0.0199819 5.44711C-0.0247263 7.79192 -0.0802682 10.7102 0.895987 13.3589C1.43279 14.8155 2.24578 16.0817 3.31221 17.1225C4.52681 18.3078 6.11769 19.2488 8.0406 19.9193C8.10316 19.9411 8.16816 19.9588 8.23438 19.9721C8.32777 19.9907 8.42176 20 8.51575 20C8.60975 20 8.70389 19.9907 8.79713 19.9721C8.86335 19.9588 8.92881 19.9409 8.99168 19.919C10.9123 19.2473 12.5015 18.3058 13.715 17.1207C14.781 16.0796 15.594 14.8131 16.1312 13.3562C17.1112 10.6995 17.0558 7.77575 17.0112 5.42651ZM8.51545 14.9846C5.76704 14.9846 3.53118 12.7487 3.53118 10.0003C3.53118 7.25192 5.76704 5.01605 8.51545 5.01605C11.2637 5.01605 13.4997 7.25192 13.4997 10.0003C13.4997 12.7487 11.2637 14.9846 8.51545 14.9846Z" fill="#A6A6A6"/>
</svg>
