<svg width="24" height="24" viewBox="0 0 24 24" fill="none" xmlns="http://www.w3.org/2000/svg">
<path d="M19.9149 6.23786L20.5371 5.61573L20.8026 5.88086C20.8729 5.95116 20.9683 5.99065 21.0677 5.99065C21.1671 5.99065 21.2625 5.95116 21.3328 5.88086L22.1286 5.08548C22.1634 5.05065 22.1911 5.00929 22.21 4.96377C22.2288 4.91825 22.2386 4.86945 22.2386 4.82017C22.2386 4.77089 22.2288 4.72209 22.21 4.67657C22.1911 4.63104 22.1634 4.58968 22.1286 4.55485L20.0072 2.43385C19.9724 2.39899 19.931 2.37133 19.8855 2.35246C19.84 2.33359 19.7912 2.32387 19.7419 2.32387C19.6926 2.32387 19.6438 2.33359 19.5983 2.35246C19.5528 2.37133 19.5114 2.39899 19.4766 2.43385L18.6812 3.22923C18.6109 3.29955 18.5714 3.39492 18.5714 3.49435C18.5714 3.59379 18.6109 3.68916 18.6812 3.75948L18.9467 4.02461L18.2661 4.70523C16.7982 3.60917 15.068 2.91832 13.2489 2.70198C13.399 2.476 13.485 2.21355 13.4978 1.94257C13.5105 1.67159 13.4496 1.40222 13.3213 1.16315C13.1931 0.924078 13.0025 0.724251 12.7697 0.584946C12.5369 0.44564 12.2707 0.37207 11.9994 0.37207C11.7282 0.37207 11.462 0.44564 11.2292 0.584946C10.9964 0.724251 10.8057 0.924078 10.6775 1.16315C10.5493 1.40222 10.4884 1.67159 10.5011 1.94257C10.5139 2.21355 10.5999 2.476 10.7499 2.70198C8.41841 2.97827 6.24648 4.0271 4.58036 5.68131C2.91424 7.33551 1.84983 9.49986 1.55682 11.8293C1.2638 14.1588 1.75904 16.5194 2.96359 18.5347C4.16814 20.5499 6.01267 22.104 8.20314 22.9491C10.3936 23.7942 12.804 23.8817 15.0499 23.1976C17.2959 22.5135 19.2482 21.0973 20.5957 19.1746C21.9432 17.2519 22.6082 14.9335 22.4849 12.5889C22.3615 10.2443 21.4568 8.00849 19.9149 6.23786ZM19.7417 3.22923L21.3332 4.82035L21.0677 5.08548L20.8026 4.82035L19.4766 3.49435L19.7417 3.22923ZM19.4766 4.55485L20.0068 5.08548L19.4766 5.61573L18.9463 5.08548L19.4766 4.55485ZM11.2494 1.8751C11.2494 1.72677 11.2934 1.58176 11.3758 1.45843C11.4583 1.33509 11.5754 1.23896 11.7124 1.1822C11.8495 1.12543 12.0003 1.11058 12.1458 1.13952C12.2912 1.16845 12.4249 1.23989 12.5298 1.34477C12.6347 1.44966 12.7061 1.5833 12.735 1.72879C12.764 1.87427 12.7491 2.02507 12.6924 2.16212C12.6356 2.29916 12.5395 2.4163 12.4161 2.49871C12.2928 2.58112 12.1478 2.6251 11.9994 2.6251C11.8005 2.6251 11.6098 2.54609 11.4691 2.40544C11.3285 2.26478 11.2494 2.07402 11.2494 1.8751ZM11.9994 22.8751C10.0711 22.8751 8.18601 22.3033 6.58263 21.2319C4.97925 20.1606 3.72957 18.6378 2.99162 16.8563C2.25366 15.0747 2.06058 13.1143 2.43679 11.223C2.81299 9.33166 3.74159 7.59438 5.10515 6.23081C6.46871 4.86725 8.206 3.93865 10.0973 3.56245C11.9886 3.18624 13.949 3.37932 15.7306 4.11728C17.5122 4.85523 19.0349 6.10492 20.1063 7.7083C21.1776 9.31168 21.7494 11.1967 21.7494 13.1251C21.7466 15.7101 20.7184 18.1884 18.8906 20.0162C17.0627 21.8441 14.5844 22.8722 11.9994 22.8751Z" fill="#03CF9E"/>
<path d="M12 4.5C10.2941 4.5 8.62658 5.00585 7.20821 5.95357C5.78984 6.9013 4.68435 8.24834 4.03154 9.82436C3.37874 11.4004 3.20793 13.1346 3.54073 14.8077C3.87353 16.4807 4.69498 18.0176 5.90121 19.2238C7.10744 20.43 8.64426 21.2515 10.3173 21.5843C11.9904 21.9171 13.7246 21.7463 15.3006 21.0935C16.8767 20.4407 18.2237 19.3352 19.1714 17.9168C20.1192 16.4984 20.625 14.8309 20.625 13.125C20.6224 10.8383 19.7129 8.646 18.096 7.02905C16.479 5.41211 14.2867 4.50258 12 4.5ZM12 21C10.4425 21 8.91993 20.5381 7.62489 19.6728C6.32985 18.8075 5.32049 17.5776 4.72445 16.1386C4.12841 14.6997 3.97246 13.1163 4.27632 11.5887C4.58018 10.0611 5.3302 8.65787 6.43154 7.55653C7.53288 6.4552 8.93607 5.70517 10.4637 5.40132C11.9913 5.09746 13.5747 5.25341 15.0136 5.84945C16.4526 6.44549 17.6825 7.45485 18.5478 8.74988C19.4131 10.0449 19.875 11.5675 19.875 13.125C19.8726 15.2128 19.0422 17.2145 17.5658 18.6908C16.0895 20.1672 14.0879 20.9976 12 21Z" fill="#03CF9E"/>
<path d="M12 7.125C12.0995 7.125 12.1948 7.08549 12.2652 7.01517C12.3355 6.94484 12.375 6.84946 12.375 6.75V6C12.375 5.90054 12.3355 5.80516 12.2652 5.73484C12.1948 5.66451 12.0995 5.625 12 5.625C11.9005 5.625 11.8052 5.66451 11.7348 5.73484C11.6645 5.80516 11.625 5.90054 11.625 6V6.75C11.625 6.84946 11.6645 6.94484 11.7348 7.01517C11.8052 7.08549 11.9005 7.125 12 7.125Z" fill="#03CF9E"/>
<path d="M12 19.125C11.9005 19.125 11.8052 19.1645 11.7348 19.2348C11.6645 19.3052 11.625 19.4005 11.625 19.5V20.25C11.625 20.3495 11.6645 20.4448 11.7348 20.5152C11.8052 20.5855 11.9005 20.625 12 20.625C12.0995 20.625 12.1948 20.5855 12.2652 20.5152C12.3355 20.4448 12.375 20.3495 12.375 20.25V19.5C12.375 19.4005 12.3355 19.3052 12.2652 19.2348C12.1948 19.1645 12.0995 19.125 12 19.125Z" fill="#03CF9E"/>
<path d="M19.125 12.75H18.375C18.2755 12.75 18.1802 12.7895 18.1098 12.8598C18.0395 12.9302 18 13.0255 18 13.125C18 13.2245 18.0395 13.3198 18.1098 13.3902C18.1802 13.4605 18.2755 13.5 18.375 13.5H19.125C19.2245 13.5 19.3198 13.4605 19.3902 13.3902C19.4605 13.3198 19.5 13.2245 19.5 13.125C19.5 13.0255 19.4605 12.9302 19.3902 12.8598C19.3198 12.7895 19.2245 12.75 19.125 12.75Z" fill="#03CF9E"/>
<path d="M5.625 12.75H4.875C4.77554 12.75 4.68016 12.7895 4.60984 12.8598C4.53951 12.9302 4.5 13.0255 4.5 13.125C4.5 13.2245 4.53951 13.3198 4.60984 13.3902C4.68016 13.4605 4.77554 13.5 4.875 13.5H5.625C5.72446 13.5 5.81984 13.4605 5.89016 13.3902C5.96049 13.3198 6 13.2245 6 13.125C6 13.0255 5.96049 12.9302 5.89016 12.8598C5.81984 12.7895 5.72446 12.75 5.625 12.75Z" fill="#03CF9E"/>
<path d="M12.3652 11.6753C12.3697 11.6587 12.3731 11.642 12.3753 11.625V8.25C12.3753 8.15054 12.3358 8.05516 12.2655 7.98483C12.1952 7.91451 12.0998 7.875 12.0003 7.875C11.9009 7.875 11.8055 7.91451 11.7352 7.98483C11.6648 8.05516 11.6253 8.15054 11.6253 8.25V11.625C11.6276 11.642 11.631 11.6587 11.6354 11.6753C11.3114 11.7552 11.0235 11.9415 10.8176 12.2043C10.6118 12.467 10.5 12.7912 10.5 13.125C10.5 13.4588 10.6118 13.783 10.8176 14.0457C11.0235 14.3085 11.3114 14.4948 11.6354 14.5748C11.631 14.5913 11.6276 14.608 11.6253 14.625V15.75C11.6253 15.8495 11.6648 15.9448 11.7352 16.0152C11.8055 16.0855 11.9009 16.125 12.0003 16.125C12.0998 16.125 12.1952 16.0855 12.2655 16.0152C12.3358 15.9448 12.3753 15.8495 12.3753 15.75V14.625C12.3731 14.608 12.3697 14.5913 12.3652 14.5748C12.6893 14.4948 12.9772 14.3085 13.183 14.0457C13.3888 13.783 13.5006 13.4588 13.5006 13.125C13.5006 12.7912 13.3888 12.467 13.183 12.2043C12.9772 11.9415 12.6893 11.7552 12.3652 11.6753ZM12.0003 13.875C11.852 13.875 11.707 13.831 11.5836 13.7486C11.4603 13.6662 11.3642 13.5491 11.3074 13.412C11.2506 13.275 11.2358 13.1242 11.2647 12.9787C11.2937 12.8332 11.3651 12.6996 11.47 12.5947C11.5749 12.4898 11.7085 12.4183 11.854 12.3894C11.9995 12.3605 12.1503 12.3753 12.2873 12.4321C12.4244 12.4889 12.5415 12.585 12.6239 12.7083C12.7063 12.8317 12.7503 12.9767 12.7503 13.125C12.7503 13.3239 12.6713 13.5147 12.5307 13.6553C12.39 13.796 12.1992 13.875 12.0003 13.875Z" fill="#03CF9E"/>
</svg>
