<svg width="20" height="24" viewBox="0 0 20 24" fill="none" xmlns="http://www.w3.org/2000/svg">
<path d="M15.9615 16.6154V17.025L16.2489 17.3169L18.2086 19.3077H1.17604L3.13573 17.3169L3.42308 17.025V16.6154V10.4615C3.42308 7.0081 5.19217 4.35738 8.10901 3.65531L8.875 3.47094V2.68308V1.84615C8.875 1.36199 9.2538 1 9.69231 1C10.1308 1 10.5096 1.36199 10.5096 1.84615V2.68308V3.4703L11.2748 3.65512C14.1809 4.35706 15.9615 7.02131 15.9615 10.4615V16.6154ZM10.7262 22.5385C10.4635 22.8236 10.0927 23 9.69231 23C9.28665 23 8.91554 22.8239 8.65407 22.5385H10.7262Z" stroke="white" stroke-width="2"/>
</svg>
