<svg width="40" height="41" viewBox="0 0 40 41" fill="none" xmlns="http://www.w3.org/2000/svg">
<path d="M20 0.0947266C8.97203 0.0947266 0 9.06676 0 20.0947C0 31.1227 8.97203 40.0947 20 40.0947C31.028 40.0947 40 31.1227 40 20.0947C39.9993 9.06676 31.028 0.0947266 20 0.0947266ZM20 36.8711C10.7493 36.8711 3.22358 29.3454 3.22358 20.094C3.22358 10.8434 10.7493 3.31759 20 3.31759C29.2507 3.31759 36.7764 10.8441 36.7764 20.0947C36.7764 29.3454 29.2507 36.8711 20 36.8711Z" fill="#03CF9E"/>
<path d="M26.3754 13.7172L17.04 23.0533L13.6239 19.6372C12.9949 19.0075 11.9744 19.0075 11.3454 19.6372C10.7156 20.2663 10.7156 21.2867 11.3454 21.9158L15.9011 26.4715C16.2156 26.786 16.6285 26.944 17.0407 26.944C17.4529 26.944 17.8651 26.7867 18.1796 26.4715L28.6546 15.9964C29.2837 15.3666 29.2837 14.3469 28.6546 13.7172C28.0249 13.0881 27.0051 13.0881 26.3754 13.7172Z" fill="#03CF9E"/>
</svg>
