<svg width="18" height="16" viewBox="0 0 18 16" fill="none" xmlns="http://www.w3.org/2000/svg">
<path d="M16.9922 6.71862H16.564V4.14561C16.564 3.09352 15.7075 2.24077 14.6591 2.24077H14.2642L14.2678 1.28466C14.2678 0.575882 13.692 0 12.9832 0H1.56153C0.708778 0 0.0110747 0.686628 0 1.53938C0 1.54676 0 1.55414 0 1.56153V14.1645C0 14.8733 0.575882 15.4491 1.28466 15.4491H14.6628C15.7149 15.4491 16.5677 14.5927 16.5677 13.5443V10.9676H16.9959C17.5496 10.9676 18 10.5172 18 9.9635V7.72272C17.9963 7.16899 17.5459 6.71862 16.9922 6.71862ZM1.56153 0.885972H12.9832C13.201 0.885972 13.3819 1.06317 13.3819 1.28097L13.3782 2.24077H1.56153C1.18868 2.24077 0.885972 1.93806 0.885972 1.56522C0.885972 1.19237 1.18868 0.885972 1.56153 0.885972ZM15.678 13.5406C15.678 14.1017 15.2203 14.5595 14.6591 14.5595H1.28097C1.06317 14.5595 0.882281 14.3823 0.882281 14.1608V2.9717C1.08901 3.07137 1.31788 3.12674 1.56153 3.12674H14.6591C15.2203 3.12674 15.678 3.5845 15.678 4.14561V6.71862H12.6546C12.1009 6.71862 11.6505 7.16899 11.6505 7.72272V9.9635C11.6505 10.5172 12.1009 10.9676 12.6546 10.9676H15.678V13.5406ZM17.1103 9.9635C17.1103 10.0299 17.0587 10.0816 16.9922 10.0816H12.6583C12.5919 10.0816 12.5402 10.0299 12.5402 9.9635V7.72272C12.5402 7.65997 12.5919 7.60459 12.6583 7.60459H16.9922C17.055 7.60459 17.1103 7.65628 17.1103 7.72272V9.9635Z" fill="white"/>
</svg>
