<svg width="73" height="54" viewBox="0 0 73 54" fill="none" xmlns="http://www.w3.org/2000/svg">
<path d="M52.6458 0.641445L2.06492 16.3584C0.924496 16.7127 0.287267 17.9245 0.641629 19.0649L9.74113 48.3494C10.0955 49.4898 11.3073 50.127 12.4477 49.7727L63.0286 34.0557C64.169 33.7014 64.8063 32.4896 64.4519 31.3492L55.3524 2.06474C54.998 0.924312 53.7863 0.287083 52.6458 0.641445Z" fill="url(#paint0_linear)"/>
<path d="M52.3811 1.10354L2.91648 16.4736C1.77606 16.828 1.13883 18.0397 1.49319 19.1802L10.2252 47.282C10.5796 48.4224 11.7913 49.0596 12.9318 48.7053L62.3964 33.3352C63.5368 32.9808 64.1741 31.7691 63.8197 30.6286L55.0877 2.52683C54.7333 1.3864 53.5216 0.749174 52.3811 1.10354Z" fill="white"/>
<path d="M55.7664 4.70898L2.17188 21.3623L3.60818 25.9847L57.2027 9.33135L55.7664 4.70898Z" fill="#6C63FF"/>
<path d="M26.8672 37.799L13.25 42.0303L13.8711 44.0291L27.4884 39.7979L26.8672 37.799Z" fill="#BDBDBD"/>
<path d="M35.8147 31.3195L12.2031 38.6562L12.8242 40.6551L36.4358 33.3183L35.8147 31.3195Z" fill="#E0E0E0"/>
<path d="M70.3815 18.9287H17.092C15.8978 18.9287 14.9297 19.8968 14.9297 21.091V51.7911C14.9297 52.9853 15.8978 53.9534 17.092 53.9534H70.3815C71.5757 53.9534 72.5438 52.9853 72.5438 51.7911V21.091C72.5438 19.8968 71.5757 18.9287 70.3815 18.9287Z" fill="url(#paint1_linear)"/>
<path d="M69.5419 19.2861H17.7443C16.5501 19.2861 15.582 20.2542 15.582 21.4484V50.8756C15.582 52.0699 16.5501 53.038 17.7443 53.038H69.5419C70.7361 53.038 71.7042 52.0699 71.7042 50.8756V21.4484C71.7042 20.2542 70.7361 19.2861 69.5419 19.2861Z" fill="white"/>
<path d="M30.565 35.6709H28.9297V40.315H30.565V35.6709Z" fill="#E0E0E0"/>
<path d="M32.6587 35.6709H31.0234V40.315H32.6587V35.6709Z" fill="#E0E0E0"/>
<path d="M34.7525 35.6709H33.1172V40.315H34.7525V35.6709Z" fill="#E0E0E0"/>
<path d="M38.4126 35.6709H36.7773V40.315H38.4126V35.6709Z" fill="#E0E0E0"/>
<path d="M40.5064 35.6709H38.8711V40.315H40.5064V35.6709Z" fill="#E0E0E0"/>
<path d="M42.6001 35.6709H40.9648V40.315H42.6001V35.6709Z" fill="#E0E0E0"/>
<path d="M46.2642 35.6709H44.6289V40.315H46.2642V35.6709Z" fill="#E0E0E0"/>
<path d="M48.354 35.6709H46.7188V40.315H48.354V35.6709Z" fill="#E0E0E0"/>
<path d="M50.4478 35.6709H48.8125V40.315H50.4478V35.6709Z" fill="#E0E0E0"/>
<path d="M54.1118 35.6709H52.4766V40.315H54.1118V35.6709Z" fill="#E0E0E0"/>
<path d="M56.2056 35.6709H54.5703V40.315H56.2056V35.6709Z" fill="#E0E0E0"/>
<path d="M58.2993 35.6709H56.6641V40.315H58.2993V35.6709Z" fill="#E0E0E0"/>
<path d="M28.9024 28.1289H19.1523V33.4757H28.9024V28.1289Z" fill="#6C63FF"/>
<path opacity="0.1" d="M63.0266 45.6631H57.0508V51.6389H63.0266V45.6631Z" fill="#6C63FF"/>
<path opacity="0.1" d="M66.0149 45.6631H60.0391V51.6389H66.0149V45.6631Z" fill="#6C63FF"/>
<defs>
<linearGradient id="paint0_linear" x1="32.6544" y1="49.9623" x2="32.8721" y2="0.453637" gradientUnits="userSpaceOnUse">
<stop stop-color="#808080" stop-opacity="0.25"/>
<stop offset="0.53514" stop-color="#808080" stop-opacity="0.12"/>
<stop offset="1" stop-color="#808080" stop-opacity="0.1"/>
</linearGradient>
<linearGradient id="paint1_linear" x1="31663.7" y1="23810.4" x2="31663.7" y2="8208.96" gradientUnits="userSpaceOnUse">
<stop stop-color="#808080" stop-opacity="0.25"/>
<stop offset="0.53514" stop-color="#808080" stop-opacity="0.12"/>
<stop offset="1" stop-color="#808080" stop-opacity="0.1"/>
</linearGradient>
</defs>
</svg>
