<svg width="21" height="20" viewBox="0 0 21 20" fill="none" xmlns="http://www.w3.org/2000/svg">
<path d="M0.785352 20C0.58625 20 0.390195 19.9239 0.241406 19.7796C0.0130859 19.5583 -0.0582813 19.2207 0.0608984 18.9259L1.83477 14.5379C0.635234 12.9786 0.00390625 11.1494 0.00390625 9.21875C0.00390625 6.74316 1.05293 4.41965 2.95781 2.67621C4.8434 0.95043 7.34578 0 10.0039 0C12.662 0 15.1644 0.95043 17.05 2.67621C18.9549 4.41965 20.0039 6.74316 20.0039 9.21875C20.0039 10.9941 19.4555 12.7179 18.4179 14.2037C18.1708 14.5575 17.6838 14.644 17.33 14.397C16.9762 14.1499 16.8898 13.6629 17.1368 13.3091C17.9903 12.0869 18.4414 10.6725 18.4414 9.21875C18.4414 4.99707 14.6564 1.5625 10.0039 1.5625C5.35145 1.5625 1.56641 4.99707 1.56641 9.21875C1.56641 10.929 2.17488 12.5469 3.32602 13.8974C3.51484 14.1189 3.56488 14.4271 3.45574 14.697L2.23051 17.7278L5.79867 16.1549C5.99645 16.0678 6.22156 16.0664 6.42039 16.1512C7.54617 16.6315 8.7518 16.875 10.0039 16.875C11.445 16.875 12.8671 16.5396 14.1166 15.905C14.5014 15.7097 14.9716 15.8631 15.167 16.2478C15.3623 16.6325 15.2089 17.1027 14.8242 17.2981C13.3566 18.0435 11.6897 18.4375 10.0039 18.4375C8.65703 18.4375 7.3541 18.1957 6.12594 17.7182L1.10031 19.9336C0.998984 19.9783 0.891719 20 0.785352 20ZM10.7852 12.6953V8.47656C10.7852 8.04508 10.4354 7.69531 10.0039 7.69531C9.57242 7.69531 9.22266 8.04508 9.22266 8.47656V12.6953C9.22266 13.1268 9.57242 13.4766 10.0039 13.4766C10.4354 13.4766 10.7852 13.1268 10.7852 12.6953ZM10.0039 5C9.57242 5 9.22266 5.34977 9.22266 5.78125C9.22266 6.21273 9.57242 6.5625 10.0039 6.5625C10.4354 6.5625 10.7852 6.21273 10.7852 5.78125C10.7852 5.34977 10.4354 5 10.0039 5Z" fill="#03CF9E"/>
</svg>
