<svg width="512" height="512" viewBox="0 0 512 512" fill="none" xmlns="http://www.w3.org/2000/svg">
<circle cx="256" cy="256" r="256" fill="#EFFFF5"/>
<circle cx="256.425" cy="256.425" r="230.952" fill="#E3FFEE"/>
<circle cx="256.425" cy="256.425" r="125.665" fill="#CAFFDF"/>
<g clip-path="url(#clip0)">
<path d="M355.96 232.46C355.939 232.23 355.893 232.003 355.823 231.783C355.777 231.587 355.714 231.395 355.633 231.21C355.54 231.029 355.428 230.858 355.3 230.699C355.171 230.511 355.023 230.338 354.857 230.183C354.803 230.136 354.78 230.072 354.723 230.026L322.665 205.128V179.324C322.665 173.801 318.188 169.323 312.665 169.323H276.539L262.075 158.093C258.502 155.306 253.491 155.306 249.918 158.093L235.45 169.323H199.325C193.802 169.323 189.324 173.8 189.324 179.324V205.129L157.276 230.026C157.22 230.073 157.196 230.136 157.143 230.183C156.977 230.338 156.828 230.512 156.7 230.7C156.572 230.858 156.46 231.029 156.366 231.21C156.286 231.395 156.222 231.587 156.177 231.783C156.107 232 156.061 232.224 156.04 232.45C156.04 232.52 156 232.58 156 232.65V345.999C156.005 348.119 156.691 350.182 157.957 351.882C157.977 351.912 157.98 351.949 158.003 351.975C158.027 352.002 158.077 352.032 158.11 352.069C159.983 354.533 162.895 355.986 165.99 355.999H345.999C349.107 355.99 352.031 354.53 353.907 352.052C353.933 352.019 353.973 352.009 353.996 351.976C354.02 351.943 354.023 351.913 354.043 351.883C355.309 350.182 355.995 348.119 356 345.999V232.66C356 232.59 355.963 232.53 355.96 232.46ZM253.994 163.353C255.159 162.428 256.807 162.428 257.971 163.353L265.661 169.323H246.327L253.994 163.353ZM166.83 349.332L253.995 281.625C255.16 280.702 256.807 280.702 257.972 281.625L345.159 349.332H166.83ZM349.333 344.135L262.075 276.365C258.501 273.58 253.492 273.58 249.918 276.365L162.657 344.135V237.736L217.283 280.155C218.738 281.284 220.833 281.019 221.962 279.564C223.09 278.108 222.825 276.013 221.37 274.885L165.874 231.793L189.325 213.568V239.326C189.325 241.168 190.817 242.66 192.658 242.66C194.499 242.66 195.991 241.167 195.991 239.326V179.323C195.991 177.482 197.484 175.99 199.325 175.99H312.664C314.505 175.99 315.997 177.482 315.997 179.323V239.326C315.997 241.168 317.489 242.66 319.331 242.66C321.172 242.66 322.664 241.167 322.664 239.326V213.568L346.115 231.793L290.522 274.962C289.566 275.686 289.073 276.869 289.231 278.059C289.39 279.248 290.176 280.261 291.289 280.71C292.401 281.159 293.67 280.975 294.609 280.228L349.332 237.736V344.135H349.333Z" fill="#1FCF65"/>
<path d="M295.996 235.992V222.658C295.996 200.566 278.087 182.656 255.994 182.656C233.902 182.656 215.992 200.566 215.992 222.658C215.992 244.751 233.902 262.66 255.994 262.66C257.835 262.66 259.328 261.168 259.328 259.327C259.328 257.486 257.835 255.994 255.994 255.994C237.584 255.994 222.659 241.069 222.659 222.659C222.659 204.248 237.584 189.324 255.994 189.324C274.405 189.324 289.329 204.248 289.329 222.659V235.993C289.329 239.675 286.344 242.66 282.662 242.66C278.98 242.66 275.995 239.675 275.995 235.993V222.659C275.995 220.818 274.503 219.325 272.661 219.325C270.82 219.325 269.328 220.818 269.328 222.659C269.328 230.023 263.358 235.993 255.994 235.993C248.63 235.993 242.66 230.023 242.66 222.659C242.66 215.295 248.63 209.325 255.994 209.325C257.835 209.325 259.328 207.833 259.328 205.992C259.328 204.15 257.835 202.658 255.994 202.658C247.043 202.638 239.168 208.569 236.714 217.178C234.261 225.787 237.826 234.977 245.444 239.679C253.062 244.381 262.875 243.449 269.471 237.397C270.197 244.446 276.325 249.688 283.401 249.313C290.479 248.938 296.019 243.079 295.996 235.992Z" fill="#1FCF65"/>
</g>
<defs>
<clipPath id="clip0">
<rect x="156" y="156" width="200" height="200" fill="white"/>
</clipPath>
</defs>
</svg>
