<svg width="544" height="402" viewBox="0 0 544 402" fill="none" xmlns="http://www.w3.org/2000/svg">
<g clip-path="url(#clip0)">
<g opacity="0.1">
<path opacity="0.1" d="M435.004 284.808C435.004 284.808 396.221 279.772 425.145 342.543C425.145 342.543 451.504 331.247 452.554 305.77C452.767 300.812 451.155 295.947 448.021 292.099C444.888 288.25 440.452 285.684 435.554 284.888L435.004 284.808Z" fill="#1FCF65"/>
<path opacity="0.1" d="M435.573 284.714C435.573 284.714 444.353 319.714 425.174 342.548" stroke="#535461" stroke-width="0.49519" stroke-miterlimit="10"/>
<path opacity="0.1" d="M424.648 345.781C424.648 345.781 438.613 311.365 464.689 298.599C475.67 293.315 484.638 284.609 490.246 273.79C492.867 268.638 495.01 263.256 496.649 257.712" stroke="#535461" stroke-width="0.99038" stroke-miterlimit="10"/>
<path opacity="0.1" d="M513.037 249.576C510.318 252.992 496.25 257.994 496.25 257.994C496.25 257.994 497.944 243.138 500.662 239.746C501.282 238.861 502.077 238.111 502.998 237.545C503.918 236.978 504.945 236.605 506.015 236.45C507.085 236.295 508.175 236.36 509.219 236.642C510.262 236.924 511.237 237.417 512.083 238.09C512.929 238.763 513.629 239.602 514.139 240.555C514.648 241.508 514.958 242.556 515.048 243.633C515.137 244.71 515.006 245.795 514.661 246.819C514.316 247.844 513.765 248.787 513.042 249.59L513.037 249.576Z" fill="#1FCF65"/>
<path opacity="0.1" d="M508.209 276.638C504.07 278.029 489.551 274.568 489.551 274.568C489.551 274.568 499.034 263.04 503.173 261.648C504.176 261.237 505.253 261.037 506.336 261.058C507.42 261.08 508.487 261.323 509.473 261.774C510.458 262.225 511.341 262.873 512.066 263.678C512.791 264.484 513.343 265.429 513.688 266.456C514.034 267.484 514.164 268.571 514.073 269.651C513.981 270.73 513.669 271.78 513.155 272.734C512.641 273.689 511.938 274.527 511.087 275.199C510.236 275.87 509.257 276.36 508.209 276.638Z" fill="#1FCF65"/>
<path opacity="0.1" d="M482.032 308.632C477.759 307.746 466.969 297.426 466.969 297.426C466.969 297.426 480.973 292.261 485.251 293.147C487.187 293.687 488.846 294.942 489.891 296.659C490.936 298.375 491.29 300.425 490.881 302.393C490.472 304.36 489.33 306.099 487.687 307.256C486.044 308.414 484.023 308.904 482.032 308.627V308.632Z" fill="#1FCF65"/>
<path opacity="0.1" d="M456.778 328.38C452.415 328.226 440.035 319.883 440.035 319.883C440.035 319.883 452.97 312.415 457.332 312.574C459.332 312.777 461.18 313.733 462.501 315.249C463.823 316.764 464.519 318.725 464.448 320.734C464.378 322.743 463.546 324.65 462.122 326.069C460.697 327.488 458.787 328.312 456.778 328.375V328.38Z" fill="#1FCF65"/>
<path opacity="0.1" d="M476.029 264.877C476.588 269.21 486.041 280.758 486.041 280.758C486.041 280.758 492.266 267.189 491.711 262.857C491.643 261.775 491.354 260.718 490.861 259.753C490.369 258.787 489.683 257.933 488.847 257.243C488.011 256.553 487.042 256.042 486 255.741C484.959 255.441 483.867 255.357 482.792 255.496C481.716 255.634 480.681 255.992 479.75 256.546C478.818 257.101 478.011 257.841 477.377 258.72C476.743 259.6 476.296 260.6 476.064 261.659C475.832 262.718 475.82 263.813 476.029 264.877Z" fill="#1FCF65"/>
<path opacity="0.1" d="M446.784 288.369C448.612 292.33 461.09 300.526 461.09 300.526C461.09 300.526 462.972 285.715 461.145 281.753C460.756 280.742 460.163 279.822 459.404 279.049C458.645 278.276 457.735 277.667 456.731 277.259C455.727 276.852 454.651 276.654 453.567 276.679C452.484 276.704 451.418 276.952 450.434 277.405C449.45 277.859 448.57 278.509 447.847 279.317C447.125 280.124 446.575 281.071 446.233 282.099C445.891 283.127 445.764 284.214 445.859 285.293C445.953 286.373 446.268 287.421 446.784 288.374V288.369Z" fill="#1FCF65"/>
<path opacity="0.1" d="M421.49 315.079C422.619 319.298 433.538 329.479 433.538 329.479C433.538 329.479 437.895 315.203 436.761 310.984C436.55 309.92 436.123 308.911 435.506 308.018C434.89 307.126 434.096 306.37 433.175 305.797C432.254 305.224 431.225 304.846 430.152 304.687C429.079 304.528 427.985 304.591 426.937 304.872C425.89 305.153 424.911 305.646 424.061 306.32C423.212 306.995 422.51 307.837 422 308.794C421.489 309.751 421.18 310.803 421.092 311.884C421.005 312.965 421.14 314.053 421.49 315.079Z" fill="#1FCF65"/>
<path opacity="0.25" d="M513.037 249.576C510.318 252.992 496.25 257.994 496.25 257.994C496.25 257.994 497.944 243.138 500.662 239.746C501.282 238.861 502.077 238.111 502.998 237.545C503.918 236.978 504.945 236.605 506.015 236.45C507.085 236.295 508.175 236.36 509.219 236.642C510.262 236.924 511.237 237.417 512.083 238.09C512.929 238.763 513.629 239.602 514.139 240.555C514.648 241.508 514.958 242.556 515.048 243.633C515.137 244.71 515.006 245.795 514.661 246.819C514.316 247.844 513.765 248.787 513.042 249.59L513.037 249.576Z" fill="black"/>
<path opacity="0.25" d="M508.209 276.638C504.07 278.029 489.551 274.568 489.551 274.568C489.551 274.568 499.034 263.04 503.173 261.648C504.176 261.237 505.253 261.037 506.336 261.058C507.42 261.08 508.487 261.323 509.473 261.774C510.458 262.225 511.341 262.873 512.066 263.678C512.791 264.484 513.343 265.429 513.688 266.456C514.034 267.484 514.164 268.571 514.073 269.651C513.981 270.73 513.669 271.78 513.155 272.734C512.641 273.689 511.938 274.527 511.087 275.199C510.236 275.87 509.257 276.36 508.209 276.638Z" fill="black"/>
<path opacity="0.25" d="M482.032 308.632C477.759 307.746 466.969 297.426 466.969 297.426C466.969 297.426 480.973 292.261 485.251 293.147C487.187 293.687 488.846 294.942 489.891 296.659C490.936 298.375 491.29 300.425 490.881 302.393C490.472 304.36 489.33 306.099 487.687 307.256C486.044 308.414 484.023 308.904 482.032 308.627V308.632Z" fill="black"/>
<path opacity="0.25" d="M456.778 328.38C452.415 328.226 440.035 319.883 440.035 319.883C440.035 319.883 452.97 312.415 457.332 312.574C459.332 312.777 461.18 313.733 462.501 315.249C463.823 316.764 464.519 318.725 464.448 320.734C464.378 322.743 463.546 324.65 462.122 326.069C460.697 327.488 458.787 328.312 456.778 328.375V328.38Z" fill="black"/>
<path opacity="0.25" d="M476.029 264.877C476.588 269.21 486.041 280.758 486.041 280.758C486.041 280.758 492.266 267.189 491.711 262.857C491.643 261.775 491.354 260.718 490.861 259.753C490.369 258.787 489.683 257.933 488.847 257.243C488.011 256.553 487.042 256.042 486 255.741C484.959 255.441 483.867 255.357 482.792 255.496C481.716 255.634 480.681 255.992 479.75 256.546C478.818 257.101 478.011 257.841 477.377 258.72C476.743 259.6 476.296 260.6 476.064 261.659C475.832 262.718 475.82 263.813 476.029 264.877Z" fill="black"/>
<path opacity="0.25" d="M446.784 288.369C448.612 292.33 461.09 300.526 461.09 300.526C461.09 300.526 462.972 285.715 461.145 281.753C460.756 280.742 460.163 279.822 459.404 279.049C458.645 278.276 457.735 277.667 456.731 277.259C455.727 276.852 454.651 276.654 453.567 276.679C452.484 276.704 451.418 276.952 450.434 277.405C449.45 277.859 448.57 278.509 447.847 279.317C447.125 280.124 446.575 281.071 446.233 282.099C445.891 283.127 445.764 284.214 445.859 285.293C445.953 286.373 446.268 287.421 446.784 288.374V288.369Z" fill="black"/>
<path opacity="0.25" d="M421.49 315.079C422.619 319.298 433.538 329.479 433.538 329.479C433.538 329.479 437.895 315.203 436.761 310.984C436.55 309.92 436.123 308.911 435.506 308.018C434.89 307.126 434.096 306.37 433.175 305.797C432.254 305.224 431.225 304.846 430.152 304.687C429.079 304.528 427.985 304.591 426.937 304.872C425.89 305.153 424.911 305.646 424.061 306.32C423.212 306.995 422.51 307.837 422 308.794C421.489 309.751 421.18 310.803 421.092 311.884C421.005 312.965 421.14 314.053 421.49 315.079Z" fill="black"/>
<path opacity="0.1" d="M443.248 361.439C443.248 361.439 457.212 327.023 483.289 314.257C494.265 308.969 503.227 300.261 508.831 289.443C511.452 284.29 513.595 278.908 515.234 273.365" stroke="#535461" stroke-width="0.99038" stroke-miterlimit="10"/>
<path opacity="0.1" d="M531.611 265.224C528.893 268.64 514.824 273.642 514.824 273.642C514.824 273.642 516.518 258.786 519.236 255.394C520.586 253.894 522.457 252.965 524.468 252.798C526.479 252.63 528.478 253.236 530.058 254.492C531.637 255.748 532.678 257.559 532.967 259.556C533.257 261.553 532.774 263.586 531.616 265.238L531.611 265.224Z" fill="#1FCF65"/>
<path opacity="0.1" d="M526.792 292.286C522.652 293.677 508.133 290.216 508.133 290.216C508.133 290.216 517.616 278.688 521.755 277.296C523.701 276.78 525.769 277.024 527.542 277.978C529.314 278.931 530.657 280.524 531.297 282.431C531.938 284.339 531.829 286.419 530.992 288.249C530.156 290.079 528.654 291.523 526.792 292.286Z" fill="#1FCF65"/>
<path opacity="0.1" d="M500.616 324.3C496.343 323.413 485.553 313.094 485.553 313.094C485.553 313.094 499.557 307.929 503.835 308.815C505.771 309.355 507.43 310.61 508.475 312.326C509.52 314.043 509.874 316.093 509.465 318.06C509.056 320.028 507.914 321.767 506.271 322.924C504.628 324.082 502.607 324.572 500.616 324.295V324.3Z" fill="#1FCF65"/>
<path opacity="0.1" d="M475.358 344.023C470.995 343.87 458.615 335.526 458.615 335.526C458.615 335.526 471.55 328.068 475.912 328.222C477.912 328.425 479.76 329.381 481.082 330.897C482.403 332.412 483.099 334.373 483.028 336.382C482.958 338.391 482.126 340.298 480.702 341.717C479.277 343.136 477.367 343.96 475.358 344.023Z" fill="#1FCF65"/>
<path opacity="0.1" d="M494.611 280.545C495.17 284.878 504.623 296.426 504.623 296.426C504.623 296.426 510.848 282.857 510.293 278.525C510.225 277.443 509.936 276.386 509.443 275.421C508.951 274.455 508.265 273.601 507.429 272.911C506.593 272.221 505.624 271.71 504.582 271.409C503.541 271.109 502.449 271.025 501.374 271.164C500.298 271.302 499.263 271.66 498.332 272.214C497.4 272.769 496.593 273.509 495.959 274.388C495.325 275.268 494.878 276.268 494.646 277.327C494.414 278.386 494.402 279.481 494.611 280.545Z" fill="#1FCF65"/>
<path opacity="0.1" d="M465.369 303.997C467.196 307.958 479.675 316.154 479.675 316.154C479.675 316.154 481.557 301.343 479.73 297.381C478.771 295.611 477.174 294.272 475.264 293.637C473.354 293.001 471.274 293.117 469.446 293.96C467.618 294.802 466.179 296.309 465.422 298.175C464.664 300.04 464.646 302.123 465.369 304.002V303.997Z" fill="#1FCF65"/>
<path opacity="0.1" d="M440.077 330.737C441.206 334.956 452.125 345.137 452.125 345.137C452.125 345.137 456.483 330.861 455.349 326.642C454.7 324.739 453.353 323.154 451.579 322.207C449.806 321.261 447.738 321.024 445.797 321.544C443.855 322.065 442.184 323.304 441.122 325.011C440.06 326.718 439.686 328.765 440.077 330.737Z" fill="#1FCF65"/>
</g>
<path opacity="0.1" d="M5.86914 212.917C14.4656 249.66 32.6639 281.421 61.4245 296.817C121.194 328.811 255.989 312.311 356.592 293.35C407.423 283.805 453.563 257.432 487.585 218.478L5.86914 212.917Z" fill="#1FCF65"/>
<path opacity="0.1" d="M533.417 39.9667H478.218C476.953 39.9667 475.739 39.4641 474.845 38.5693C473.95 37.6745 473.447 36.461 473.447 35.1956C473.447 33.9302 473.95 32.7166 474.845 31.8219C475.739 30.9271 476.953 30.4244 478.218 30.4244H487.761C486.495 30.4244 485.282 29.9218 484.387 29.027C483.492 28.1322 482.989 26.9187 482.989 25.6533C482.989 24.3879 483.492 23.1743 484.387 22.2796C485.282 21.3848 486.495 20.8821 487.761 20.8821H480.947C479.681 20.8821 478.468 20.3795 477.573 19.4847C476.678 18.5899 476.176 17.3764 476.176 16.111C476.176 14.8456 476.678 13.632 477.573 12.7373C478.468 11.8425 479.681 11.3398 480.947 11.3398H509.757C503.364 8.36868 495.892 6.25422 487.285 5.145C408.728 -4.94697 380.681 1.72819 370.787 8.61133C358.58 17.0791 344.963 23.3086 330.409 26.3094C281.935 36.2974 191.29 48.3305 109.134 22.4469C68.3002 9.57199 37.95 31.3207 19.7617 67.6479H542.999C542.316 57.0904 540.271 47.3451 536.517 38.808C535.656 39.5538 534.556 39.9651 533.417 39.9667Z" fill="#1FCF65"/>
<path opacity="0.1" d="M1.18297 136.227C-0.93619 157.597 -0.215196 179.153 3.32714 200.334L487.959 218.057C501.45 202.538 512.777 185.264 521.632 166.706L1.18297 136.227ZM192.861 181.958H183.319C184.584 181.958 185.798 182.46 186.692 183.355C187.587 184.25 188.09 185.463 188.09 186.729C188.09 187.994 187.587 189.208 186.692 190.102C185.798 190.997 184.584 191.5 183.319 191.5H128.12C126.855 191.5 125.641 190.997 124.746 190.102C123.851 189.208 123.349 187.994 123.349 186.729C123.349 185.463 123.851 184.25 124.746 183.355C125.641 182.46 126.855 181.958 128.12 181.958H137.662C136.397 181.958 135.183 181.455 134.288 180.56C133.394 179.665 132.891 178.452 132.891 177.186C132.891 175.921 133.394 174.707 134.288 173.813C135.183 172.918 136.397 172.415 137.662 172.415H130.848C129.583 172.415 128.369 171.913 127.475 171.018C126.58 170.123 126.077 168.909 126.077 167.644C126.077 166.379 126.58 165.165 127.475 164.27C128.369 163.376 129.583 162.873 130.848 162.873H186.047C187.313 162.873 188.526 163.376 189.421 164.27C190.316 165.165 190.818 166.379 190.818 167.644C190.818 168.909 190.316 170.123 189.421 171.018C188.526 171.913 187.313 172.415 186.047 172.415H192.861C194.126 172.415 195.34 172.918 196.235 173.813C197.129 174.707 197.632 175.921 197.632 177.186C197.632 178.452 197.129 179.665 196.235 180.56C195.34 181.455 194.126 181.958 192.861 181.958Z" fill="#1FCF65"/>
<path opacity="0.1" d="M543.024 67.9797L13.9188 80.8547C7.48625 97.399 3.24248 116.102 1.26172 135.489H533.754C537.231 124.101 539.802 112.456 541.444 100.662C543.029 89.2679 543.663 78.245 543.024 67.9797ZM108.678 110.155H99.136C100.401 110.155 101.615 110.658 102.51 111.552C103.404 112.447 103.907 113.661 103.907 114.926C103.907 116.192 103.404 117.405 102.51 118.3C101.615 119.195 100.401 119.697 99.136 119.697H43.9372C42.6718 119.697 41.4582 119.195 40.5635 118.3C39.6687 117.405 39.166 116.192 39.166 114.926C39.166 113.661 39.6687 112.447 40.5635 111.552C41.4582 110.658 42.6718 110.155 43.9372 110.155H53.4795C52.2141 110.155 51.0005 109.652 50.1058 108.758C49.211 107.863 48.7083 106.649 48.7083 105.384C48.7083 104.119 49.211 102.905 50.1058 102.01C51.0005 101.115 52.2141 100.613 53.4795 100.613H46.6657C45.4003 100.613 44.1867 100.11 43.292 99.2153C42.3972 98.3205 41.8945 97.107 41.8945 95.8416C41.8945 94.5762 42.3972 93.3626 43.292 92.4679C44.1867 91.5731 45.4003 91.0704 46.6657 91.0704H101.864C103.13 91.0704 104.343 91.5731 105.238 92.4679C106.133 93.3626 106.636 94.5762 106.636 95.8416C106.636 97.107 106.133 98.3205 105.238 99.2153C104.343 100.11 103.13 100.613 101.864 100.613H108.678C109.944 100.613 111.157 101.115 112.052 102.01C112.947 102.905 113.449 104.119 113.449 105.384C113.449 106.649 112.947 107.863 112.052 108.758C111.157 109.652 109.944 110.155 108.678 110.155Z" fill="#1FCF65"/>
<path d="M464.825 401.748C464.825 401.748 442.759 280.723 400.683 261.084C365.029 244.431 326.474 233.205 315.51 230.159C313.873 227.522 311.981 225.053 309.86 222.786C294.876 207.143 285.873 207.435 284.417 207.628C283.726 204.526 283.23 201.384 282.932 198.22C282.887 197.724 282.843 197.264 282.803 196.774L282.932 196.709C282.843 195.773 282.763 194.808 282.694 193.812C288.811 190.548 294.443 186.446 299.426 181.626C299.491 181.839 299.545 182.052 299.615 182.27C310.413 173.142 320.989 163.766 331.341 154.143C334.313 151.365 337.432 148.349 338.442 144.432C338.766 143.084 338.891 141.696 338.814 140.312C338.948 137.341 338.244 134.305 338.126 131.295C338.126 130.799 338.18 130.339 338.244 129.869C338.938 124.941 342.364 120.896 345.177 116.761C352.204 106.312 355.872 93.9655 355.69 81.3746C355.767 75.3416 354.932 69.3315 353.214 63.5478C351.02 56.2091 346.455 48.499 338.853 46.8945C335.912 46.2756 332.857 46.6618 329.856 46.4687C317.432 45.6764 308.132 35.5745 298.223 28.1714C286.13 19.1798 271.828 13.6289 256.835 12.1075C252.156 11.6123 247.323 11.5776 242.871 13.0632C232.873 16.3909 226.802 26.666 217.17 30.89C210.05 34.0295 201.82 33.5195 194.392 35.8766C183.334 39.3924 173.95 50.7323 173.703 62.3841C173.703 62.8149 173.703 63.2457 173.703 63.6765C173.703 63.7508 173.703 63.8251 173.703 63.8944C173.579 69.7822 175.683 75.779 175.852 81.8054C175.852 82.3501 175.86 82.8965 175.877 83.4445C175.822 89.9513 175.045 96.4779 172.673 102.593C171.395 105.886 169.751 109.699 170.019 112.992C169.87 115.008 170.261 116.9 171.663 118.44L174.054 116.33C173.252 120.671 172.849 125.077 172.851 129.492C172.851 151.746 182.973 171.672 198.938 185.082C199.03 186.564 199.119 188.152 199.205 189.846C199.581 197.185 199.878 206.39 199.794 216.423L176.441 237.889L116.404 265.125C116.404 265.125 61.4977 276.722 73.3228 353.858L78.968 401.753H129.096L128.982 402.005H203.384L203.429 401.753H380.449L380.415 402.005H387.347V401.753L464.825 401.748ZM284.858 208.856C286.376 211.995 287.57 215.28 288.423 218.661C286.671 215.408 285.377 211.929 284.576 208.321L284.65 208.455L284.858 208.856ZM199.774 218.76C199.774 219.704 199.758 220.657 199.725 221.617L199.606 221.786C199.598 220.766 199.654 219.748 199.774 218.735V218.76Z" fill="url(#paint0_linear)"/>
<path d="M304.444 230.907L294.54 325.488L241.555 342.325C241.555 342.325 172.723 329.45 190.55 292.311C203.232 265.892 202.88 218.681 201.623 193.624C201.127 183.453 200.454 176.931 200.454 176.931C200.454 176.931 290.578 98.1962 283.151 169.008C281.715 182.72 281.63 193.441 282.428 201.82C285.77 236.701 304.444 230.907 304.444 230.907Z" fill="#FDC2CC"/>
<path opacity="0.03" d="M304.444 230.907L294.54 325.488L241.555 342.325C241.555 342.325 172.723 329.45 190.55 292.311C203.232 265.892 202.88 218.681 201.623 193.624C201.127 183.453 200.454 176.931 200.454 176.931C200.454 176.931 290.578 98.1962 283.151 169.008C281.715 182.72 281.63 193.441 282.428 201.82C285.77 236.701 304.444 230.907 304.444 230.907Z" fill="black"/>
<path opacity="0.1" d="M283.15 167.523C281.714 181.234 281.63 191.955 282.427 200.334C269.704 207.28 255.177 210.214 240.755 208.752C226.333 207.289 212.691 201.498 201.622 192.138C201.127 181.967 200.453 175.446 200.453 175.446C200.453 175.446 290.578 96.7104 283.15 167.523Z" fill="black"/>
<path d="M247.99 206.152C287.645 206.152 319.793 174.005 319.793 134.35C319.793 94.6944 287.645 62.5474 247.99 62.5474C208.335 62.5474 176.188 94.6944 176.188 134.35C176.188 174.005 208.335 206.152 247.99 206.152Z" fill="#FDC2CC"/>
<path opacity="0.03" d="M247.99 206.152C287.645 206.152 319.793 174.005 319.793 134.35C319.793 94.6944 287.645 62.5474 247.99 62.5474C208.335 62.5474 176.188 94.6944 176.188 134.35C176.188 174.005 208.335 206.152 247.99 206.152Z" fill="black"/>
<path opacity="0.1" d="M129.641 326.479C129.641 326.479 152.915 374.017 154.153 401.995L129.641 326.479Z" fill="black"/>
<path opacity="0.1" d="M383.179 353.719L376.494 402H383.179V353.719Z" fill="black"/>
<path opacity="0.1" d="M134.84 401.995L171.731 318.06C171.731 318.06 182.13 298.253 184.606 278.445C187.082 258.638 200.452 227.441 200.452 227.441C200.452 227.441 233.63 185.35 248.981 191.292C264.332 197.234 235.611 219.518 235.611 219.518C235.611 219.518 277.702 235.859 248.981 284.388C220.26 332.916 219.765 324.003 219.765 324.003L205.652 401.995H134.84Z" fill="black"/>
<path d="M133.85 401.995L170.741 318.06C170.741 318.06 181.14 298.253 183.616 278.445C185.191 265.852 191.168 248.654 195.313 237.795C198.018 230.695 201.999 224.15 207.058 218.483C217.784 206.479 237.265 187.122 247.991 191.282C263.342 197.224 234.621 219.508 234.621 219.508C234.621 219.508 276.712 235.849 247.991 284.377C219.27 332.906 218.775 323.993 218.775 323.993L204.662 401.985L133.85 401.995Z" fill="#FDC2CC"/>
<path opacity="0.15" d="M270.027 95.4775C270.847 95.4775 271.512 94.8124 271.512 93.9919C271.512 93.1715 270.847 92.5063 270.027 92.5063C269.206 92.5063 268.541 93.1715 268.541 93.9919C268.541 94.8124 269.206 95.4775 270.027 95.4775Z" fill="white"/>
<path opacity="0.15" d="M263.093 98.4487C263.913 98.4487 264.579 97.7836 264.579 96.9631C264.579 96.1427 263.913 95.4775 263.093 95.4775C262.273 95.4775 261.607 96.1427 261.607 96.9631C261.607 97.7836 262.273 98.4487 263.093 98.4487Z" fill="white"/>
<path opacity="0.1" d="M196.982 43.8638C204.148 41.5464 212.1 42.0465 218.974 38.9664C228.268 34.7969 234.126 24.705 243.773 21.4367C248.071 19.9809 252.736 20.0353 257.247 20.5008C271.753 22.0106 285.568 27.469 297.189 36.2825C306.751 43.5568 315.724 53.4755 327.712 54.2529C330.609 54.4411 333.556 54.0598 336.393 54.6689C343.742 56.2436 348.144 63.815 350.258 71.0102C352.704 79.5372 353.278 88.4924 351.939 97.2618C350.601 106.031 347.382 114.408 342.504 121.817C339.79 125.877 336.482 129.854 335.814 134.692C335.16 139.435 337.18 144.353 336.002 148.998C335.011 152.845 332.04 155.806 329.148 158.535C319.162 167.98 308.956 177.182 298.531 186.142C293.113 168.929 301.061 150.394 299.823 132.394C299.328 125.382 296.852 117.726 290.667 114.418C284.878 111.329 277.48 112.933 271.622 109.962C265.086 106.669 262.402 98.8695 257.46 93.472C249.041 84.2614 234.428 83.073 222.658 87.2326C210.887 91.3922 201.266 99.9491 191.956 108.293L175.035 123.471C171.732 119.747 174.238 114.032 176.026 109.377C178.69 102.4 179.274 94.8783 179.096 87.4703C178.952 81.528 176.902 75.66 177.021 69.8762C177.259 58.467 186.311 47.3153 196.982 43.8638Z" fill="black"/>
<path d="M196.982 42.3783C204.148 40.0608 212.1 40.5609 218.974 37.4808C228.268 33.3113 234.126 23.2194 243.773 19.9511C248.071 18.4953 252.736 18.5497 257.247 19.0152C271.753 20.525 285.568 25.9834 297.189 34.7969C306.751 42.0712 315.724 51.9899 327.712 52.7673C330.609 52.9555 333.556 52.5742 336.393 53.1833C343.742 54.758 348.144 62.3295 350.258 69.5246C352.704 78.0516 353.278 87.0068 351.939 95.7762C350.601 104.546 347.382 112.922 342.504 120.331C339.79 124.392 336.482 128.368 335.814 133.206C335.16 137.95 337.18 142.867 336.002 147.512C335.011 151.36 332.04 154.321 329.148 157.049C319.162 166.494 308.956 175.697 298.531 184.656C293.113 167.443 301.061 148.908 299.823 130.908C299.328 123.896 296.852 116.241 290.667 112.933C284.878 109.843 277.48 111.447 271.622 108.476C265.086 105.183 262.402 97.3839 257.46 91.9864C249.041 82.7758 234.428 81.5874 222.658 85.747C210.887 89.9066 201.266 98.4635 191.956 106.807L175.035 121.985C171.732 118.261 174.238 112.547 176.026 107.892C178.69 100.915 179.274 93.3927 179.096 85.9847C178.952 80.0424 176.902 74.1744 177.021 68.3906C177.259 56.9814 186.311 45.8297 196.982 42.3783Z" fill="#865A61"/>
</g>
<defs>
<linearGradient id="paint0_linear" x1="268.234" y1="401.995" x2="268.234" y2="11.7757" gradientUnits="userSpaceOnUse">
<stop stop-color="#808080" stop-opacity="0.25"/>
<stop offset="0.54" stop-color="#808080" stop-opacity="0.12"/>
<stop offset="1" stop-color="#808080" stop-opacity="0.1"/>
</linearGradient>
<clipPath id="clip0">
<rect width="543.273" height="402" fill="white"/>
</clipPath>
</defs>
</svg>
