<svg width="80" height="50" viewBox="0 0 80 50" fill="none" xmlns="http://www.w3.org/2000/svg">
<path d="M49.9819 24.9983C49.9819 38.8075 38.7952 49.9967 24.9909 49.9967C11.1867 49.9967 0 38.805 0 24.9983C0 11.1916 11.1894 0 24.9909 0C38.7924 0 49.9819 11.1916 49.9819 24.9983Z" fill="#E2574C"/>
<path d="M55.0011 0.000244141C49.3964 0.000244141 44.2366 1.86766 40.0669 4.98505L40.087 4.98752C40.907 5.77989 41.8118 6.33757 42.5093 7.24975L37.3096 7.33228C36.4947 8.15481 35.7522 9.04972 35.0523 9.97973H44.2215C44.9191 10.8171 45.5639 11.5447 46.149 12.4695H33.3899C32.9224 13.2745 32.4901 14.102 32.1125 14.9618H47.6016C48.0066 15.8191 48.369 16.4667 48.6766 17.3743H31.1951C30.9177 18.2368 30.6802 19.1191 30.5001 20.019H49.409C49.594 20.884 49.7363 21.6838 49.8339 22.4989H30.125C30.0425 23.3214 30 24.1563 30 24.9989H49.9762C49.9762 25.8839 49.9137 26.7037 49.8238 27.4988H30.125C30.21 28.3463 30.335 29.1787 30.5001 29.9987H49.3788C49.1839 30.8087 48.9588 31.6235 48.6764 32.4685H31.1376C31.4024 33.3234 31.7251 34.1533 32.0774 34.9633H47.6016C47.1717 35.8732 46.6842 36.6006 46.1468 37.4531H33.3452C33.8503 38.328 34.4077 39.1628 35.0125 39.9629L44.2218 40.1002C43.4369 41.0426 42.4295 41.6101 41.5119 42.4351C41.5618 42.4752 40.0445 42.4302 37.057 42.3828C41.6018 47.0725 47.9539 49.9972 55.0008 49.9972C68.8075 49.9972 79.9991 38.8053 79.9991 24.9989C79.9991 11.1924 68.81 0.000244141 55.0011 0.000244141Z" fill="#F4B459"/>
</svg>
