<svg width="14" height="18" viewBox="0 0 14 18" fill="none" xmlns="http://www.w3.org/2000/svg">
<path d="M12.3125 7.96875H11.9805V4.98047C11.9805 2.23424 9.74623 0 7 0C4.25377 0 2.01953 2.23424 2.01953 4.98047V7.96875H1.6875C1.13739 7.96875 0.691406 8.41473 0.691406 8.96484V16.9336C0.691406 17.4837 1.13739 17.9297 1.6875 17.9297H12.3125C12.8626 17.9297 13.3086 17.4837 13.3086 16.9336V8.96484C13.3086 8.41473 12.8626 7.96875 12.3125 7.96875ZM7.99609 13.9453C7.99609 14.4954 7.55011 14.9414 7 14.9414C6.44989 14.9414 6.00391 14.4954 6.00391 13.9453V11.9531C6.00391 11.403 6.44989 10.957 7 10.957C7.55011 10.957 7.99609 11.403 7.99609 11.9531V13.9453ZM9.98828 7.96875H4.01172V4.98047C4.01172 3.33273 5.35226 1.99219 7 1.99219C8.64774 1.99219 9.98828 3.33273 9.98828 4.98047V7.96875Z" fill="#1CBBFF"/>
</svg>
