<svg width="25" height="33" viewBox="0 0 25 33" fill="none" xmlns="http://www.w3.org/2000/svg">
<path d="M21.875 10.9375H20.3125V7.8125C20.3125 3.5 16.8125 0 12.5 0C8.1875 0 4.6875 3.5 4.6875 7.8125V10.9375H3.125C1.40625 10.9375 0 12.3438 0 14.0625V29.6875C0 31.4062 1.40625 32.8125 3.125 32.8125H21.875C23.5938 32.8125 25 31.4062 25 29.6875V14.0625C25 12.3438 23.5938 10.9375 21.875 10.9375ZM12.5 25C10.7812 25 9.375 23.5938 9.375 21.875C9.375 20.1562 10.7812 18.75 12.5 18.75C14.2188 18.75 15.625 20.1562 15.625 21.875C15.625 23.5938 14.2188 25 12.5 25ZM7.8125 10.9375V7.8125C7.8125 5.21875 9.90625 3.125 12.5 3.125C15.0938 3.125 17.1875 5.21875 17.1875 7.8125V10.9375H7.8125Z" fill="#1FCF65"/>
</svg>
