<svg width="578" height="402" viewBox="0 0 578 402" fill="none" xmlns="http://www.w3.org/2000/svg">
<g clip-path="url(#clip0)">
<path d="M115.121 402C178.701 402 230.242 398.085 230.242 393.257C230.242 388.428 178.701 384.513 115.121 384.513C51.5415 384.513 0 388.428 0 393.257C0 398.085 51.5415 402 115.121 402Z" fill="#E6E6E6"/>
<path d="M87.9941 89.1969C108.029 80.6755 132.982 86.0746 157.352 89.8217C157.578 85.2839 160.327 79.7611 157.448 76.5953C153.95 72.7491 154.272 68.7078 156.377 64.6432C161.76 54.2495 154.047 43.1901 146.26 33.9943C144.505 31.9263 142.287 30.3014 139.786 29.2516C137.285 28.2019 134.572 27.7569 131.866 27.9527L117.442 28.9831C113.932 29.2338 110.582 30.5505 107.84 32.7571C105.099 34.9637 103.097 37.9548 102.102 41.3303C98.6578 46.0147 96.8143 50.6861 97.975 55.3332C92.8159 58.8589 91.9491 63.1147 94.2674 67.9123C96.2332 70.9331 96.2123 73.8736 94.178 76.7327C91.5063 80.3778 89.46 84.4422 88.1231 88.7592L87.9941 89.1969Z" fill="#2F2E41"/>
<path d="M564.099 347.522H155.77C152.138 347.522 148.656 346.08 146.088 343.512C143.521 340.945 142.078 337.462 142.078 333.831C290.097 316.628 435.335 316.628 577.79 333.831C577.79 337.462 576.348 340.945 573.78 343.512C571.212 346.08 567.73 347.522 564.099 347.522Z" fill="#2F2E41"/>
<path d="M577.79 334.636L142.078 333.831L192.576 248.863L192.817 248.46V61.201C192.817 58.9281 193.265 56.6773 194.134 54.5774C195.004 52.4774 196.279 50.5694 197.886 48.9622C199.493 47.355 201.401 46.0801 203.501 45.2104C205.601 44.3407 207.852 43.8931 210.125 43.8933H507.327C509.6 43.8931 511.851 44.3407 513.951 45.2104C516.051 46.0801 517.959 47.355 519.566 48.9622C521.173 50.5694 522.448 52.4774 523.318 54.5774C524.187 56.6773 524.635 58.9281 524.635 61.201V249.749L577.79 334.636Z" fill="#3F3D56"/>
<path d="M209.731 55.9741C208.237 55.9758 206.804 56.5703 205.747 57.6272C204.69 58.6841 204.095 60.1171 204.094 61.6118V232.353C204.095 233.848 204.69 235.281 205.747 236.337C206.804 237.394 208.237 237.989 209.731 237.991H510.139C511.634 237.989 513.067 237.394 514.124 236.337C515.18 235.28 515.775 233.848 515.777 232.353V61.6118C515.775 60.1171 515.181 58.6842 514.124 57.6273C513.067 56.5704 511.634 55.9759 510.139 55.9741H209.731Z" fill="white"/>
<path d="M210.99 260.541C210.528 260.542 210.076 260.675 209.687 260.924C209.298 261.173 208.989 261.528 208.795 261.947L193.235 295.773C193.066 296.141 192.991 296.546 193.019 296.95C193.047 297.355 193.177 297.745 193.395 298.087C193.614 298.428 193.915 298.709 194.27 298.903C194.626 299.097 195.024 299.199 195.43 299.199H522.645C523.057 299.199 523.462 299.094 523.822 298.894C524.181 298.693 524.484 298.404 524.7 298.053C524.917 297.703 525.04 297.303 525.058 296.892C525.077 296.48 524.99 296.071 524.806 295.703L507.892 261.877C507.693 261.474 507.385 261.136 507.003 260.9C506.621 260.664 506.181 260.54 505.732 260.541H210.99Z" fill="#2F2E41"/>
<path d="M358.726 53.1552C360.727 53.1552 362.35 51.5326 362.35 49.531C362.35 47.5294 360.727 45.9067 358.726 45.9067C356.724 45.9067 355.102 47.5294 355.102 49.531C355.102 51.5326 356.724 53.1552 358.726 53.1552Z" fill="white"/>
<path d="M326.565 305.643C326.034 305.643 325.518 305.819 325.096 306.142C324.675 306.465 324.371 306.918 324.232 307.431L320.329 321.927C320.233 322.286 320.22 322.661 320.292 323.025C320.364 323.389 320.519 323.731 320.744 324.025C320.97 324.32 321.26 324.558 321.593 324.722C321.925 324.887 322.291 324.972 322.662 324.972H396.889C397.274 324.972 397.654 324.88 397.996 324.703C398.339 324.527 398.634 324.271 398.857 323.957C399.08 323.643 399.225 323.281 399.28 322.899C399.335 322.518 399.298 322.129 399.172 321.765L394.154 307.269C393.989 306.794 393.681 306.382 393.272 306.091C392.862 305.8 392.373 305.643 391.87 305.643H326.565Z" fill="#2F2E41"/>
<path d="M524.635 245.642V248.863H192.576L192.826 248.461V245.642H524.635Z" fill="#2F2E41"/>
<path d="M515.373 112.754C546.509 112.754 571.75 87.5128 571.75 56.3768C571.75 25.2407 546.509 0 515.373 0C484.237 0 458.996 25.2407 458.996 56.3768C458.996 87.5128 484.237 112.754 515.373 112.754Z" fill="#03CF9E"/>
<path d="M538.731 80.941H492.018C491.164 80.9402 490.345 80.6005 489.741 79.9965C489.137 79.3926 488.798 78.5736 488.797 77.7195V49.5311C488.798 48.677 489.137 47.8581 489.741 47.2541C490.345 46.6502 491.164 46.3105 492.018 46.3096H538.731C539.585 46.3105 540.404 46.6502 541.008 47.2541C541.612 47.8581 541.951 48.677 541.952 49.5311V77.7195C541.951 78.5736 541.612 79.3926 541.008 79.9965C540.404 80.6005 539.585 80.9402 538.731 80.941ZM492.018 49.5311V77.7195H538.733L538.731 49.5311L492.018 49.5311Z" fill="white"/>
<path d="M529.871 49.5311H500.877V36.645C500.877 27.3115 506.974 20.5374 515.374 20.5374C523.774 20.5374 529.871 27.3115 529.871 36.645L529.871 49.5311ZM504.098 46.3096H526.649V36.645C526.649 29.0579 522.013 23.7589 515.374 23.7589C508.735 23.7589 504.099 29.058 504.099 36.645L504.098 46.3096Z" fill="white"/>
<path d="M515.374 66.0414C517.153 66.0414 518.595 64.5991 518.595 62.8199C518.595 61.0407 517.153 59.5984 515.374 59.5984C513.595 59.5984 512.152 61.0407 512.152 62.8199C512.152 64.5991 513.595 66.0414 515.374 66.0414Z" fill="white"/>
<path d="M476.018 180.077H243.852C242.712 180.076 241.619 179.622 240.813 178.816C240.007 178.01 239.554 176.917 239.553 175.778V118.187C239.554 117.047 240.007 115.954 240.813 115.148C241.619 114.342 242.712 113.889 243.852 113.888H476.018C477.158 113.889 478.251 114.342 479.057 115.148C479.863 115.954 480.316 117.047 480.317 118.187V175.778C480.316 176.917 479.863 178.01 479.057 178.816C478.251 179.622 477.158 180.076 476.018 180.077ZM243.852 115.607C243.168 115.608 242.512 115.88 242.029 116.364C241.545 116.847 241.273 117.503 241.272 118.187V175.778C241.273 176.461 241.545 177.117 242.029 177.601C242.512 178.084 243.168 178.356 243.852 178.357H476.018C476.702 178.356 477.358 178.084 477.841 177.601C478.325 177.117 478.597 176.461 478.598 175.778V118.187C478.597 117.503 478.325 116.847 477.841 116.364C477.358 115.88 476.702 115.608 476.018 115.607L243.852 115.607Z" fill="#E6E6E6"/>
<path d="M279.925 162.286C289.598 162.286 297.439 154.445 297.439 144.773C297.439 135.1 289.598 127.259 279.925 127.259C270.253 127.259 262.412 135.1 262.412 144.773C262.412 154.445 270.253 162.286 279.925 162.286Z" fill="#E6E6E6"/>
<path d="M320.375 133.097C319.991 133.096 319.611 133.171 319.256 133.318C318.902 133.464 318.579 133.679 318.308 133.95C318.036 134.221 317.821 134.543 317.674 134.898C317.527 135.252 317.451 135.632 317.451 136.016C317.451 136.4 317.527 136.779 317.674 137.134C317.821 137.488 318.036 137.81 318.308 138.081C318.579 138.353 318.902 138.567 319.256 138.714C319.611 138.86 319.991 138.935 320.375 138.935H457.979C458.753 138.935 459.496 138.627 460.043 138.08C460.591 137.532 460.898 136.79 460.898 136.016C460.898 135.242 460.591 134.499 460.043 133.952C459.496 133.404 458.753 133.097 457.979 133.097H320.375Z" fill="#E6E6E6"/>
<path d="M320.374 150.61C319.6 150.61 318.857 150.918 318.31 151.465C317.763 152.013 317.455 152.755 317.455 153.529C317.455 154.303 317.763 155.046 318.31 155.593C318.857 156.141 319.6 156.448 320.374 156.448H379.586C380.36 156.448 381.102 156.141 381.65 155.593C382.197 155.046 382.504 154.303 382.504 153.529C382.504 152.755 382.197 152.013 381.65 151.465C381.102 150.918 380.36 150.61 379.586 150.61H320.374Z" fill="#E6E6E6"/>
<path d="M192.006 151.791L149.088 174.608L148.545 155.594C162.553 153.255 175.88 149.184 188.203 142.556L192.692 131.466C193.181 130.258 193.976 129.197 194.998 128.389C196.021 127.581 197.237 127.052 198.525 126.855C199.814 126.658 201.132 126.8 202.349 127.266C203.566 127.733 204.642 128.508 205.469 129.515C206.68 130.989 207.285 132.868 207.162 134.771C207.039 136.674 206.197 138.46 204.807 139.766L192.006 151.791Z" fill="#FFB8B8"/>
<path d="M87.1408 283.528C86.8277 282.38 86.7612 281.178 86.9457 280.002C87.1302 278.827 87.5615 277.703 88.2113 276.706L97.6391 262.237C99.869 258.815 103.291 256.343 107.24 255.301C111.189 254.259 115.385 254.722 119.013 256.598C115.051 263.343 115.603 269.259 120.381 274.401C112.964 278.022 106.108 282.696 100.027 288.277C98.9166 289.034 97.6416 289.515 96.3081 289.679C94.9745 289.844 93.621 289.687 92.3603 289.222C91.0996 288.758 89.9681 287.998 89.0602 287.008C88.1523 286.017 87.4942 284.824 87.1408 283.528Z" fill="#2F2E41"/>
<path d="M193.961 264.61C192.534 266.988 190.521 268.959 188.113 270.334C185.705 271.709 182.984 272.443 180.212 272.464L117.58 272.938L114.863 257.184L142.57 249.035L119.209 231.107L144.743 201.228L191.119 244.452C193.83 246.979 195.591 250.359 196.108 254.028C196.625 257.697 195.868 261.433 193.961 264.61Z" fill="#2F2E41"/>
<path d="M107.8 372.355H93.1323C79.9625 282.081 66.5569 191.555 106.171 157.767L152.891 165.373L146.915 205.031L120.839 234.91L107.8 372.355Z" fill="#2F2E41"/>
<path d="M120.693 392.805C119.545 393.118 118.344 393.185 117.168 393C115.992 392.816 114.869 392.385 113.871 391.735L97.9448 389.594C94.5225 387.364 92.0504 383.943 91.0082 379.994C89.9661 376.044 90.4281 371.849 92.3046 368.221C99.0492 372.182 104.966 371.63 110.107 366.851C113.74 374.186 119.726 373.739 125.442 379.919C126.199 381.029 126.68 382.304 126.844 383.637C127.009 384.971 126.852 386.324 126.387 387.585C125.923 388.846 125.164 389.977 124.173 390.885C123.183 391.793 121.99 392.451 120.693 392.805Z" fill="#2F2E41"/>
<path d="M142.567 97.4648L115.404 90.9457C119.916 81.7113 120.287 71.4361 118.121 60.523L136.591 59.9797C137.17 73.5505 138.921 86.229 142.567 97.4648Z" fill="#FFB8B8"/>
<path d="M150.033 181.73C130.26 195.204 116.288 182.191 105.626 162.113C107.108 149.827 104.709 135.125 100.266 119.149C98.29 112.103 99.0277 104.572 102.333 98.0432C105.639 91.5142 111.272 86.4618 118.121 83.8835L141.481 93.6623C161.317 109.831 165.221 127.344 157.779 145.815L150.033 181.73Z" fill="#03CF9E"/>
<path d="M93.1308 111.046L71.4004 122.455L109.972 145.272L115.339 158.51C115.697 159.394 115.872 160.341 115.852 161.295C115.832 162.248 115.618 163.187 115.224 164.055C114.829 164.923 114.262 165.701 113.556 166.343C112.851 166.984 112.022 167.476 111.121 167.786C110.096 168.14 109.004 168.251 107.929 168.112C106.854 167.972 105.826 167.586 104.925 166.983C104.025 166.38 103.276 165.577 102.738 164.636C102.199 163.695 101.886 162.643 101.823 161.561L101.28 152.334L52.2558 136.156C50.604 135.611 49.098 134.697 47.8517 133.484C46.6054 132.271 45.6515 130.79 45.0624 129.153C44.2036 126.768 44.1599 124.165 44.9381 121.752C45.7163 119.339 47.2725 117.252 49.3631 115.818L88.7848 88.7727L93.1308 111.046Z" fill="#FFB8B8"/>
<path d="M114.861 113.22C105.799 109.248 97.5574 113.562 87.1552 117.022L85.5254 88.2295C95.8543 82.7243 105.702 81.24 114.862 85.5132L114.861 113.22Z" fill="#03CF9E"/>
<path d="M125.704 74.2418C135.282 74.2418 143.046 66.4773 143.046 56.8992C143.046 47.3212 135.282 39.5566 125.704 39.5566C116.126 39.5566 108.361 47.3212 108.361 56.8992C108.361 66.4773 116.126 74.2418 125.704 74.2418Z" fill="#FFB8B8"/>
<path d="M146.451 54.7113C129.28 56.393 116.196 53.5848 107.834 45.5889V39.1497H144.993L146.451 54.7113Z" fill="#2F2E41"/>
</g>
<defs>
<clipPath id="clip0">
<rect width="577.792" height="402" fill="white"/>
</clipPath>
</defs>
</svg>
