<svg width="20" height="16" viewBox="0 0 20 16" fill="none" xmlns="http://www.w3.org/2000/svg">
<path d="M16.8296 6.83083C15.9093 5.93278 14.3925 6.48295 14.2112 7.67183L5.80671 7.67712V6.70963C5.80671 6.5315 5.66228 6.38707 5.48415 6.38707C5.30601 6.38707 5.16158 6.5315 5.16158 6.70963V8.09383C5.16158 8.88112 4.18164 9.25445 3.62098 8.70718L1.15899 6.30453C0.474187 5.63618 0.474026 4.55766 1.15899 3.88914L3.62098 1.48646C4.1822 0.938747 5.16158 1.31312 5.16158 2.09981V2.83888C5.16158 3.01702 5.30601 3.16144 5.48415 3.16144H15.161C15.3392 3.16144 15.4836 3.01702 15.4836 2.83888C15.4836 2.66075 15.3392 2.51632 15.161 2.51632H5.80671V2.09981C5.80671 0.75533 4.14987 0.0688369 3.17041 1.02475L0.708408 3.42744C-0.236095 4.3492 -0.236176 5.84436 0.708408 6.76624L3.17041 9.16893C4.08588 10.0623 5.61103 9.52548 5.78989 8.32228L14.1933 8.317V9.29017C14.1933 9.4683 14.3378 9.61273 14.5159 9.61273C14.694 9.61273 14.8385 9.4683 14.8385 9.29017C14.8385 8.88922 14.8385 8.16443 14.8385 7.90597C14.8385 7.11876 15.8183 6.74527 16.379 7.29262L18.8411 9.69531C19.5259 10.3635 19.5261 11.4422 18.8411 12.1107L16.379 14.5133C15.8179 15.0611 14.8385 14.6867 14.8385 13.9V13.1609C14.8385 12.9828 14.694 12.8384 14.5159 12.8384H3.54877C3.37064 12.8384 3.22621 12.9828 3.22621 13.1609C3.22621 13.3391 3.37064 13.4835 3.54877 13.4835H14.1933V13.9C14.1933 15.2451 15.8507 15.9304 16.8296 14.9751L19.2917 12.5724C20.2361 11.6506 20.2362 10.1555 19.2917 9.23364L16.8296 6.83083Z" fill="#FFE602"/>
</svg>
