<svg width="22" height="22" viewBox="0 0 22 22" fill="none" xmlns="http://www.w3.org/2000/svg">
<path d="M21.1698 16.6966L21.1696 16.6967L21.1758 16.7073C21.6929 17.5957 21.7025 18.644 21.1995 19.527L21.1995 19.527C20.6961 20.4108 19.7947 20.9342 18.7756 20.9342H3.22437C2.20535 20.9342 1.30396 20.4108 0.800515 19.527L0.800501 19.527C0.297502 18.644 0.307043 17.5957 0.82419 16.7073L0.824343 16.7074L0.83023 16.6966L8.601 2.42281C9.11842 1.57407 10.0091 1.06543 11 1.06543C11.9909 1.06543 12.8816 1.57407 13.399 2.42281L21.1698 16.6966Z" stroke="#33B4FD" stroke-width="0.859375"/>
<path d="M11 18.7861C10.2894 18.7861 9.71094 18.2077 9.71094 17.4971C9.71094 16.7865 10.2894 16.208 11 16.208C11.7106 16.208 12.2891 16.7865 12.2891 17.4971C12.2891 18.2077 11.7106 18.7861 11 18.7861Z" fill="#33B4FD" fill-opacity="0.56"/>
<path d="M12.2891 13.6299C12.2891 14.3405 11.7106 14.9189 11 14.9189C10.2894 14.9189 9.71094 14.3405 9.71094 13.6299V7.18457C9.71094 6.47395 10.2894 5.89551 11 5.89551C11.7106 5.89551 12.2891 6.47395 12.2891 7.18457V13.6299Z" fill="#33B4FD" fill-opacity="0.56"/>
</svg>
