<svg width="20" height="20" viewBox="0 0 20 20" fill="none" xmlns="http://www.w3.org/2000/svg">
<path d="M19.0676 0.211182H0.932449C0.417478 0.211182 0 0.62866 0 1.14363V3.89954C0 4.41451 0.417478 4.83199 0.932449 4.83199H3.70493V8.56178C3.21591 9.12125 1.16038 11.5498 0.911728 13.1577C0.910174 13.1784 0.910174 13.1992 0.911728 13.2199V19.3741C0.911728 19.6029 1.09729 19.7885 1.32615 19.7885H6.34894C6.48456 19.7883 6.61148 19.7217 6.68877 19.6103L8.81061 16.556C8.83713 16.5168 8.85677 16.4734 8.86863 16.4275C8.86863 16.3612 9.08827 15.6235 9.33278 14.6123H15.8806C16.1095 14.6123 16.2951 14.4268 16.2951 14.1979V4.83199H19.0676C19.5825 4.83199 20 4.41451 20 3.89954V1.14363C20 0.62866 19.5825 0.211182 19.0676 0.211182ZM9.3535 10.207C9.04797 12.2067 8.62593 14.1869 8.08952 16.1374L6.1293 18.9555H1.73643V13.2696C1.89805 12.3247 2.90924 10.8743 3.70493 9.8755V14.1979C3.70493 14.4268 3.89049 14.6123 4.11935 14.6123H5.61542C5.66649 14.6119 5.71711 14.6021 5.76461 14.5833L5.81019 14.5585C5.83988 14.5439 5.8677 14.5258 5.89308 14.5046L5.93038 14.4632C5.9496 14.4402 5.96628 14.4151 5.98011 14.3886L6.00497 14.3347C6.00497 14.3347 6.00497 14.3347 6.00497 14.3057C6.41939 12.7723 7.32283 10.1242 8.00663 9.53568C8.47078 9.12125 8.74016 9.07567 8.8562 9.07567C8.94374 9.0737 9.02694 9.11374 9.07998 9.18342C9.283 9.48444 9.3793 9.84483 9.3535 10.207ZM15.4662 13.7835H9.5317C9.78864 12.6604 10.0497 11.3674 10.1782 10.3065C10.2288 9.71538 10.0623 9.12612 9.7099 8.64881C9.50243 8.40648 9.20011 8.26589 8.88106 8.2634C8.35319 8.30992 7.8593 8.5436 7.4886 8.92233C6.52714 9.75117 5.60713 12.7723 5.31289 13.8001H4.53378V2.95465H15.4662V13.7835ZM19.1712 3.89539C19.1712 3.95263 19.1248 3.999 19.0676 3.999H16.2951V2.95465H17.0452C17.274 2.95465 17.4596 2.7691 17.4596 2.54023C17.4596 2.31137 17.274 2.12581 17.0452 2.12581H2.95483C2.72596 2.12581 2.54041 2.31137 2.54041 2.54023C2.54041 2.7691 2.72596 2.95465 2.95483 2.95465H3.70908V4.01972H0.932449C0.875207 4.01972 0.828844 3.97336 0.828844 3.91611V1.14363C0.828844 1.08639 0.875207 1.04003 0.932449 1.04003H19.0676C19.1248 1.04003 19.1712 1.08639 19.1712 1.14363V3.89539Z" fill="#03CF9E"/>
</svg>
